<svg width="1920" height="235" viewBox="0 0 1920 235" fill="none" xmlns="http://www.w3.org/2000/svg">
<g opacity="0.3" filter="url(#filter0_d_9_103)">
<path d="M648.673 226.875C639.202 226.875 629.983 226.691 621.124 226.322C602.543 225.547 585.377 223.958 570.102 221.597C553.684 219.061 539.284 215.604 527.299 211.324C503.212 202.722 491.161 192.419 479.506 182.456C477.216 180.5 474.849 178.477 472.445 176.514C456.045 163.136 435.255 151.417 408.892 140.689C356.303 119.288 282.344 101.023 195.009 87.8701C94.0064 72.6595 -14.5879 65.0825 -110.772 66.5352C-167.304 67.3896 -241.999 75.5131 -275.382 89.3866C-295.193 97.6203 -296.791 106.758 -279.999 115.809L-280.332 115.847C-289.137 111.1 -292.973 106.341 -291.731 101.703C-290.591 97.4473 -285.198 93.2876 -275.697 89.3392C-260.587 83.0592 -235.668 77.4932 -203.633 73.2425C-174.032 69.315 -141.063 66.9005 -110.794 66.4432C-60.4578 65.6836 -6.92279 67.3695 48.3233 71.4554C98.4032 75.1597 147.82 80.6555 195.199 87.7908C282.586 100.951 356.589 119.226 409.208 140.64C435.585 151.376 456.386 163.1 472.797 176.486C475.204 178.448 477.571 180.472 479.857 182.429C491.502 192.385 503.545 202.68 527.6 211.27C550.862 219.578 582.351 224.611 621.186 226.229C674.966 228.469 740.274 223.783 795.879 213.692C876.011 199.151 931.624 177.986 985.408 157.518C994.836 153.93 1004.58 150.221 1014.23 146.638C1039.29 137.336 1073.22 125.283 1113.55 114.544C1154.77 103.568 1196.65 95.5036 1241.6 89.8893C1269.12 86.4529 1298.28 84.1376 1328.27 83.0082C1355.97 81.9644 1385.3 81.8997 1415.43 82.8142C1467.11 84.3835 1522.78 88.8164 1585.64 96.3652C1709.42 111.231 1833.05 129.274 1953.12 149.995C2067.25 169.689 2179.18 191.975 2285.8 216.231L2285.55 216.298C2064.53 166.017 1828.99 125.693 1585.48 96.4472C1447.91 79.9242 1338.69 77.8657 1241.77 89.9704C1143.17 102.285 1074.29 124.507 1014.54 146.688C1004.89 150.27 995.143 153.98 985.716 157.567C931.917 178.042 876.286 199.214 796.099 213.765C770.187 218.468 741.036 222.136 711.801 224.372C696.357 225.553 681.005 226.325 666.166 226.668C660.252 226.807 654.415 226.875 648.673 226.875Z" fill="#FFE492"/>
<path d="M657.934 221.774C633.781 221.774 611.408 220.631 591.414 218.375C569.118 215.859 549.878 211.961 534.226 206.789C532.841 206.331 531.466 205.857 530.14 205.38C506.309 196.815 493.723 186.646 481.555 176.812C479.093 174.825 476.55 172.769 473.971 170.775C458.607 158.898 440.108 148.43 417.409 138.774C414.613 137.586 411.719 136.394 408.799 135.234C355.436 114.017 280.877 95.9834 193.182 83.0836C91.4504 68.1326 -17.4517 60.8689 -113.464 62.6313C-169.586 63.6724 -243.936 71.9289 -277.462 85.6958C-297.537 93.9395 -299.809 103.095 -284.039 112.173L-284.376 112.21C-292.642 107.451 -296.038 102.683 -294.466 98.0391C-293.023 93.7738 -287.41 89.605 -277.777 85.6484C-262.513 79.3793 -237.667 73.807 -205.933 69.5343C-176.602 65.5851 -143.776 63.1013 -113.497 62.5402C-63.2227 61.6176 -9.62904 63.1423 45.793 67.0715C95.9937 70.631 145.645 75.992 193.365 83.0052C281.111 95.9124 355.711 113.956 409.106 135.186C412.027 136.347 414.925 137.539 417.721 138.729C440.434 148.391 458.945 158.864 474.315 170.747C476.898 172.742 479.441 174.798 481.903 176.786C494.068 186.614 506.643 196.775 530.441 205.328C531.763 205.804 533.137 206.277 534.519 206.734C566.865 217.425 611.309 221.774 658.047 221.774C658.304 221.774 658.557 221.774 658.813 221.774C658.52 221.773 658.227 221.774 657.934 221.774ZM667.904 221.71C711.355 221.155 756.192 217.005 794.657 210.83C877.629 197.457 937.261 176.802 994.932 156.827C997.307 156.003 999.681 155.182 1002.06 154.36C1007.27 152.557 1013.45 150.422 1019.76 148.269C1048.06 138.618 1082.32 127.387 1121.77 117.279C1163.74 106.523 1205.68 98.5419 1249.97 92.8775C1277.18 89.401 1305.94 86.9518 1335.44 85.5983C1362.78 84.3441 1391.67 83.9898 1421.3 84.5445C1472.49 85.5036 1527.53 89.1396 1589.57 95.661C1650.06 102.009 1699.78 107.985 1746.05 114.467C1811.59 123.659 1874.02 134.25 1926.45 143.398C2048.34 164.725 2167.93 188.943 2281.91 215.378L2281.66 215.445C2167.69 189.013 2048.11 164.797 1926.24 143.472C1873.82 134.326 1811.4 123.737 1745.87 114.548C1699.62 108.067 1649.91 102.093 1589.43 95.7466C1454.29 81.5397 1346.47 80.6535 1250.14 92.9595C1150.15 105.745 1078.95 128.242 1020.06 148.324C1013.74 150.476 1007.57 152.61 1002.35 154.415C999.978 155.235 997.603 156.058 995.229 156.881C937.539 176.863 877.885 197.525 794.855 210.909C774.267 214.213 752.359 216.838 729.738 218.71C708.681 220.45 687.924 221.457 667.904 221.71Z" fill="#FFE492"/>
<path d="M668.145 216.789C665.24 216.789 662.352 216.774 659.487 216.742C635.356 216.477 613.024 215.101 593.113 212.65C571.338 209.969 552.472 205.999 537.043 200.848C535.672 200.389 534.306 199.915 532.987 199.437C509.423 190.914 496.314 180.881 483.64 171.18C480.998 169.158 478.265 167.067 475.495 165.038C459.373 153.201 440.386 142.817 417.442 133.292C414.602 132.114 411.664 130.933 408.699 129.781C354.563 108.749 279.403 90.947 191.35 78.3004C88.8926 63.609 -20.3173 56.6577 -116.161 58.7298C-170.124 59.9147 -244.259 67.7003 -279.507 81.9928C-299.871 90.2502 -302.835 99.4303 -288.08 108.54L-288.421 108.574C-296.152 103.801 -299.102 99.0222 -297.196 94.3698C-295.445 90.0908 -289.597 85.9111 -279.818 81.9454C-264.392 75.6909 -239.627 70.1167 -208.197 65.8241C-179.142 61.8557 -146.466 59.3045 -116.194 58.6396C-65.9783 57.5548 -12.326 58.9174 43.2682 62.69C93.5935 66.1055 143.476 71.3308 191.533 78.222C279.638 90.8768 354.838 108.689 409.007 129.733C411.971 130.885 414.914 132.066 417.753 133.246C440.708 142.777 459.706 153.167 475.835 165.011C478.605 167.041 481.339 169.132 483.98 171.154C496.651 180.85 509.75 190.875 533.284 199.388C534.603 199.865 535.962 200.339 537.332 200.796C600.027 221.725 711.135 219.478 793.433 207.968C879.867 195.773 944.101 175.505 1006.22 155.904L1006.86 155.703C1012.87 153.803 1019.1 151.839 1025.29 149.9C1090.63 129.443 1162.45 108.42 1258.33 95.8645C1285.25 92.3469 1313.62 89.7638 1342.63 88.1872C1369.62 86.7208 1398.07 86.0769 1427.19 86.2736C1477.97 86.6161 1532.37 89.456 1593.51 94.9555C1657.76 100.715 1706.12 106.008 1750.29 112.121C1813.23 120.847 1874.19 131.874 1927.98 141.604C2047.74 163.382 2165.51 187.916 2278.03 214.521L2277.77 214.587C2165.27 187.984 2047.51 163.453 1927.76 141.676C1873.98 131.949 1813.03 120.924 1750.11 112.2C1705.95 106.089 1657.62 100.797 1593.39 95.0402C1460.86 83.1195 1354.45 83.4064 1258.5 95.9437C1162.68 108.491 1090.89 129.505 1025.57 149.955C1019.38 151.894 1013.16 153.859 1007.14 155.758L1006.51 155.959C975.549 165.726 943.54 175.826 908.974 184.848C870.128 194.986 832.392 202.574 793.609 208.045C753.033 213.72 708.834 216.789 668.145 216.789Z" fill="#FFE492"/>
<path d="M2273.89 213.728C2162.85 186.954 2046.91 162.108 1929.29 139.88C1924.31 138.946 1919.32 138.007 1914.31 137.065C1863.37 127.481 1810.69 117.572 1754.36 109.852C1699.71 102.383 1644.32 97.8162 1597.35 94.3342C1467.69 84.6632 1362.69 86.1232 1266.88 98.9274C1168.54 112.11 1092.33 133.998 1031.1 151.586C1027.43 152.642 1023.76 153.699 1020.09 154.757C1017.37 155.539 1014.66 156.32 1011.94 157.101C977.081 167.125 945.368 176.088 910.329 184.266C870.3 193.608 831.718 200.45 792.37 205.184C755.495 209.62 716.103 211.967 679.463 211.968C672.787 211.968 666.21 211.891 659.747 211.733C636.151 211.158 614.306 209.544 594.82 206.933C573.558 204.085 555.066 200.039 539.849 194.908C538.49 194.448 537.134 193.972 535.822 193.494C512.537 185.015 498.918 175.124 485.75 165.559C482.914 163.498 479.979 161.367 477.011 159.299C460.12 147.499 440.642 137.198 417.471 127.806C414.587 126.637 411.601 125.467 408.596 124.325C353.684 103.478 277.926 85.9073 189.517 73.513C86.3347 59.0812 -23.1792 52.4441 -118.854 54.8232C-184.261 56.4818 -251.144 66.1236 -281.504 78.2693C-302.187 86.544 -305.855 95.7532 -292.118 104.901L-292.463 104.933C-299.655 100.143 -302.162 95.3497 -299.912 90.6855C-297.842 86.391 -291.752 82.1976 -281.815 78.221C-266.229 71.9847 -241.544 66.4105 -210.429 62.1024C-181.652 58.1176 -149.145 55.4999 -118.891 54.733C-68.734 53.4852 -15.0268 54.6865 40.7396 58.3025C91.1859 61.5741 141.306 66.6646 189.7 73.4329C278.165 85.8345 353.962 103.415 408.908 124.275C411.916 125.417 414.902 126.589 417.786 127.757C440.972 137.155 460.457 147.462 477.359 159.267C480.327 161.336 483.262 163.467 486.098 165.528C499.259 175.088 512.871 184.973 536.126 193.441C537.438 193.919 538.79 194.393 540.146 194.852C605.596 216.925 716.84 214.168 792.212 205.101C882.138 194.282 950.952 174.497 1011.67 157.041C1014.38 156.259 1017.1 155.478 1019.81 154.697C1023.48 153.639 1027.15 152.581 1030.83 151.526C1065.78 141.487 1100.29 131.731 1138.24 122.741C1181.87 112.403 1223.9 104.587 1266.71 98.8472C1293.35 95.2869 1321.31 92.5699 1349.82 90.7729C1376.47 89.0924 1404.48 88.1598 1433.09 87.9995C1483.54 87.7171 1537.31 89.761 1597.46 94.2467C1644.45 97.7306 1699.86 102.299 1754.54 109.772C1810.89 117.495 1863.58 127.408 1914.54 136.993C1919.54 137.935 1924.54 138.874 1929.52 139.808C2047.14 162.038 2163.1 186.886 2274.15 213.663L2273.89 213.728Z" fill="#FFE492"/>
<path d="M2270.01 212.87C2158.33 185.412 2044.22 160.25 1930.82 138.084C1924.04 136.758 1917.1 135.391 1910.38 134.069C1862.31 124.604 1812.6 114.816 1758.61 107.503C1704.69 100.227 1648.84 96.4051 1601.31 93.6271C1474.81 86.1612 1371.2 88.7935 1275.26 101.911C1183.75 114.468 1112.05 133.351 1042.72 151.612L1035.1 153.617C1029.09 155.201 1022.87 156.837 1016.74 158.443C947.34 176.599 877.863 193.616 791.132 202.32C770.086 204.432 748.475 205.896 726.894 206.673C703.719 207.506 681.208 207.518 659.982 206.707C636.928 205.826 615.578 203.977 596.525 201.209C575.79 198.197 557.668 194.077 542.667 188.965C541.315 188.503 539.97 188.026 538.67 187.549C515.671 179.12 501.561 169.375 487.916 159.95C484.871 157.847 481.72 155.672 478.54 153.559C460.864 141.796 440.903 131.578 417.512 122.32C414.588 121.164 411.558 120.002 408.505 118.87C352.82 98.2076 276.465 80.8685 187.693 68.7264C83.7814 54.556 -26.0404 48.2314 -121.55 50.9192C-186.36 52.7818 -252.939 62.491 -283.453 74.531C-304.48 82.8267 -308.874 92.0715 -296.159 101.266L-296.508 101.296C-303.161 96.4853 -305.217 91.6734 -302.619 86.9955C-300.223 82.6828 -293.88 78.4731 -283.768 74.4837C-268.012 68.2683 -243.416 62.6996 -212.631 58.3787C-184.139 54.3793 -151.808 51.6988 -121.594 50.8299C-71.4962 49.42 -17.734 50.4592 38.2083 53.9185C88.7791 57.0462 139.13 62.001 187.865 68.6472C276.689 80.7956 353.087 98.1457 408.806 118.82C411.858 119.953 414.892 121.115 417.816 122.272C441.221 131.534 461.194 141.758 478.877 153.528C482.057 155.64 485.208 157.816 488.253 159.919C501.89 169.338 515.993 179.079 538.967 187.498C540.264 187.974 541.608 188.449 542.957 188.912C606.832 210.677 712.964 210.066 790.989 202.236C877.651 193.54 947.098 176.529 1016.47 158.381C1022.6 156.776 1028.82 155.139 1034.83 153.555L1042.45 151.55C1076.48 142.587 1111.67 133.318 1149.89 124.695C1193.18 114.929 1234.13 107.451 1275.08 101.831C1301.44 98.2258 1329.01 95.375 1357 93.3584C1383.32 91.4621 1410.9 90.2398 1438.97 89.7252C1489.21 88.8044 1542.33 90.0522 1601.39 93.5379C1648.94 96.3177 1704.82 100.14 1758.77 107.423C1812.8 114.739 1862.52 124.529 1910.61 133.997C1917.32 135.319 1924.26 136.685 1931.05 138.012C2044.45 160.18 2158.58 185.344 2270.26 212.804L2270.01 212.87Z" fill="#FFE492"/>
<path d="M2266.12 212.012C2155.41 184.249 2043.11 158.772 1932.35 136.289C1924.03 134.599 1915.49 132.842 1907.24 131.144C1861.76 121.781 1814.73 112.099 1762.85 105.157C1709.19 98.0056 1653.08 94.959 1605.27 92.9224C1482.28 87.6023 1380.07 91.4077 1283.63 104.897C1199.47 116.718 1130.37 133.472 1063.54 149.673C1056.51 151.378 1049.24 153.141 1042.15 154.848C1033.83 156.854 1027.47 158.378 1021.54 159.788C989.769 167.335 951.942 176.025 912.246 183.253C870.179 190.912 830.157 196.213 789.89 199.459C768.715 201.166 747.196 202.243 725.927 202.658C703.089 203.104 680.976 202.776 660.209 201.682C637.708 200.497 616.856 198.413 598.225 195.486C578.021 192.313 560.276 188.119 545.481 183.024C544.147 182.563 542.81 182.085 541.513 181.606C518.818 173.234 504.235 163.639 490.129 154.359C486.857 152.207 483.475 149.982 480.063 147.821C461.593 136.09 441.144 125.956 417.544 116.836C414.576 115.689 411.502 114.539 408.406 113.416C351.947 92.9379 274.992 75.8301 185.861 63.9404C81.2272 50.0304 -28.9023 44.02 -124.244 47.0148C-178.493 48.7562 -249.348 56.7786 -285.351 70.7742C-306.756 79.0954 -311.893 88.382 -300.201 97.6295L-300.549 97.6568C-306.665 92.8213 -308.262 87.9885 -305.302 83.2924C-302.568 78.9578 -295.962 74.7298 -285.659 70.725C-269.735 64.5351 -245.23 58.9755 -214.786 54.6455C-186.58 50.6343 -154.443 47.8928 -124.288 46.9246C-74.2482 45.3525 -20.4274 46.2296 35.6834 49.5322C86.3752 52.516 136.961 57.3361 186.033 63.8602C275.215 75.7563 352.215 92.8741 408.707 113.364C411.803 114.487 414.88 115.639 417.848 116.787C441.459 125.911 461.919 136.051 480.401 147.787C483.815 149.949 487.197 152.174 490.469 154.327C504.565 163.601 519.144 173.191 541.813 181.554C543.11 182.033 544.444 182.509 545.778 182.97C598.917 201.272 690.133 207.403 789.776 199.371C880.014 192.097 953.624 175.794 1021.29 159.72C1027.22 158.31 1033.57 156.787 1041.89 154.781C1048.98 153.073 1056.25 151.311 1063.28 149.606C1096.18 141.63 1130.2 133.382 1166.49 125.66C1207.51 116.926 1245.78 110.108 1283.46 104.816C1309.57 101.163 1336.73 98.1787 1364.19 95.9454C1390.2 93.8296 1417.35 92.3185 1444.87 91.4523C1494.98 89.8766 1547.47 90.3275 1605.34 92.8304C1653.17 94.8688 1709.31 97.9164 1763.02 105.074C1814.93 112.02 1861.98 121.705 1907.47 131.071C1915.72 132.769 1924.26 134.526 1932.58 136.216C2043.35 158.702 2155.66 184.181 2266.38 211.945L2266.12 212.012Z" fill="#FFE492"/>
<path d="M2262.24 211.154C2152.48 183.085 2042.01 157.291 1933.87 134.493C1924.67 132.554 1915.23 130.518 1906.09 128.55C1862.56 119.174 1817.56 109.479 1767.09 102.809C1713.39 95.7434 1657.16 93.4891 1609.23 92.2158C1491.81 89.0125 1388.04 94.1367 1292 107.881C1215.53 118.874 1149.98 133.581 1086.58 147.804C1073.78 150.677 1060.54 153.648 1047.67 156.48C1039.79 158.213 1032.82 159.735 1026.33 161.132C996.173 167.623 956.055 175.945 913.186 182.746C870.112 189.579 829.372 194.11 788.639 196.598C744.213 199.311 699.874 199.331 660.42 196.657C638.484 195.169 618.126 192.85 599.912 189.764C580.248 186.431 562.88 182.165 548.286 177.085C546.964 176.623 545.637 176.144 544.348 175.665C521.975 167.357 506.938 157.919 492.399 148.793C488.882 146.585 485.247 144.302 481.579 142.085C462.299 130.385 441.363 120.333 417.572 111.354C414.561 110.217 411.442 109.077 408.302 107.964C351.07 87.6708 273.518 70.7935 184.028 59.1579C78.6723 45.5094 -31.765 39.8122 -126.942 43.1139C-191.443 45.4001 -255.846 55 -287.195 67.0009C-309.011 75.3521 -314.906 84.687 -304.244 93.9964L-304.595 94.021C-310.168 89.1564 -311.304 84.2981 -307.974 79.5819C-304.896 75.2228 -298.007 70.9729 -287.503 66.9508C-271.41 60.79 -247.001 55.2432 -216.912 50.9096C-189.003 46.8902 -157.067 44.0885 -126.993 43.0229C-77.012 41.2887 -23.1326 42.0046 33.1505 45.1496C83.9668 47.9895 134.787 52.6747 184.196 59.0759C273.738 70.7188 351.334 87.6053 408.603 107.911C411.743 109.024 414.861 110.165 417.876 111.303C441.678 120.287 462.625 130.344 481.916 142.049C485.584 144.267 489.219 146.55 492.736 148.758C507.268 157.88 522.297 167.313 544.648 175.613C545.938 176.092 547.26 176.569 548.583 177.031C600.81 195.215 690.516 202.496 788.551 196.509C877.924 191.051 955.535 176.247 1026.09 161.064C1032.57 159.667 1039.55 158.146 1047.42 156.413C1060.29 153.581 1073.53 150.611 1086.33 147.738C1149.74 133.512 1215.31 118.801 1291.82 107.803C1317.7 104.099 1344.46 100.981 1371.37 98.535C1397.1 96.196 1423.81 94.3954 1450.75 93.1831C1500.84 90.9288 1552.7 90.5836 1609.27 92.1265C1657.22 93.4007 1713.5 95.6559 1767.26 102.73C1817.76 109.405 1862.78 119.103 1906.33 128.482C1915.46 130.451 1924.91 132.485 1934.11 134.425C2042.25 157.225 2152.74 183.02 2262.5 211.091L2262.24 211.154Z" fill="#FFE492"/>
<path d="M2258.35 210.296C2149.58 181.917 2040.92 155.809 1935.4 132.698C1925.71 130.574 1915.73 128.325 1906.09 126.15C1864.15 116.695 1820.78 106.917 1771.33 100.462C1717.41 93.4561 1661.13 92.0052 1613.19 91.5097C1500.21 90.2564 1397.88 96.5875 1300.38 110.865C1231.99 120.926 1171.04 133.659 1112.08 145.973C1091.81 150.207 1072.66 154.206 1053.19 158.111C1045.27 159.7 1038.05 161.129 1031.13 162.476C986.446 171.16 949.271 177.439 914.133 182.236C870.051 188.253 828.596 192.015 787.398 193.735C771.415 194.401 755.491 194.734 739.857 194.734C712.142 194.734 685.325 193.692 660.637 191.628C615.958 187.893 579.105 181.001 551.101 171.143C549.782 170.676 548.467 170.197 547.192 169.72C525.16 161.484 509.701 152.213 494.752 143.247C490.963 140.976 487.05 138.628 483.104 136.344C463 124.672 441.572 114.704 417.61 105.868C414.554 104.741 411.392 103.611 408.208 102.508C350.203 82.3998 272.049 65.7538 182.2 54.3705C76.1227 40.9843 -34.6187 35.5996 -129.63 39.2082C-194.399 41.7193 -256.944 51.1371 -288.964 63.2017C-311.223 71.5875 -317.899 80.978 -308.277 90.3585L-308.633 90.3812C-313.656 85.4829 -314.323 80.5955 -310.611 75.8547C-307.174 71.4664 -299.997 67.1929 -289.268 63.1516C-273.007 57.0246 -248.704 51.496 -218.981 47.1623C-191.373 43.1365 -159.661 40.2802 -129.685 39.118C-79.7631 37.2217 -25.825 37.7755 30.6266 40.7639C81.5675 43.4608 132.618 48.0112 182.368 54.2885C272.269 65.6791 350.466 82.3342 408.508 102.454C411.692 103.558 414.854 104.688 417.914 105.816C441.891 114.656 463.329 124.63 483.441 136.307C487.387 138.59 491.304 140.939 495.089 143.211C510.031 152.173 525.482 161.439 547.496 169.668C548.771 170.145 550.082 170.623 551.401 171.089C603.694 189.498 689.689 197.719 787.335 193.644C880.288 189.764 962.619 175.674 1030.9 162.403C1037.82 161.056 1045.04 159.628 1052.96 158.039C1072.43 154.134 1091.58 150.136 1111.85 145.902C1170.81 133.586 1231.78 120.851 1300.19 110.786C1325.88 107.024 1352.24 103.773 1378.56 101.121C1404.05 98.5521 1430.32 96.4618 1456.64 94.9089C1506.84 91.9478 1558.06 90.8057 1613.21 91.4177C1661.19 91.9132 1717.51 93.366 1771.5 100.38C1820.99 106.84 1864.37 116.622 1906.33 126.08C1915.98 128.256 1925.95 130.504 1935.64 132.627C2041.16 155.741 2149.83 181.851 2258.61 210.232L2258.35 210.296Z" fill="#FFE492"/>
<path d="M2254.47 209.438C2145.15 180.343 2041.28 154.654 1936.93 130.902C1926.97 128.635 1917.17 126.321 1906.79 123.871C1866.22 114.293 1824.26 104.39 1775.58 98.115C1720.98 91.1118 1662.23 90.5289 1617.15 90.8039C1509.31 91.3759 1408.43 98.9147 1308.75 113.851C1248.94 122.856 1193.72 133.67 1140.32 144.129C1112.25 149.626 1085.74 154.817 1058.71 159.743C1050.68 161.207 1043.23 162.54 1035.92 163.82C990.63 171.74 952.231 177.429 915.071 181.725C869.967 186.938 827.797 189.93 786.152 190.872C764.754 191.356 743.503 191.265 722.988 190.602C701.268 189.899 680.361 188.552 660.85 186.599C617.603 182.268 581.626 175.069 553.915 165.203C552.607 164.735 551.303 164.255 550.035 163.778C528.373 155.626 512.526 146.533 497.2 137.739C493.111 135.393 488.883 132.966 484.629 130.607C463.681 118.961 441.771 109.075 417.643 100.385C414.54 99.2681 411.333 98.1478 408.113 97.0548C349.335 77.1318 270.584 60.7171 180.375 49.5861C97.1142 39.3549 11.2515 34.0167 -67.4847 34.0167C-89.7436 34.0167 -111.416 34.4429 -132.32 35.3055C-196.308 37.9978 -258.461 47.4493 -290.668 59.3846C-313.399 67.8096 -320.885 77.2638 -312.315 86.7244L-312.674 86.7445C-317.148 81.8079 -317.334 76.8867 -313.231 72.1186C-309.427 67.6985 -301.938 63.3967 -290.975 59.3336C-274.546 53.2448 -250.356 47.739 -221.015 43.4099C-193.318 39.3231 -162.669 36.4895 -132.386 35.2162C-82.5218 33.1578 -28.5251 33.5503 28.0987 36.3811C79.1605 38.9332 130.45 43.3479 180.537 49.5032C270.796 60.6406 349.595 77.0644 408.41 96.9993C411.634 98.0923 414.844 99.2135 417.947 100.331C442.086 109.026 464.008 118.916 484.966 130.568C489.22 132.927 493.452 135.354 497.541 137.701C512.86 146.491 528.699 155.581 550.343 163.726C551.611 164.203 552.915 164.682 554.219 165.149C606.04 183.599 690.561 192.941 786.123 190.78C882.82 188.593 970.302 175.182 1035.72 163.744C1043.02 162.464 1050.47 161.13 1058.5 159.668C1085.53 154.743 1112.03 149.551 1140.1 144.055C1193.51 133.596 1248.73 122.779 1308.56 113.771C1359.89 106.081 1410.25 100.477 1462.53 96.6368C1512.96 92.9334 1563.54 90.9952 1617.15 90.711C1647.74 90.5243 1672.7 90.8486 1695.69 91.7302C1725.38 92.8688 1751.57 94.9299 1775.75 98.0321C1824.48 104.312 1866.46 114.221 1907.05 123.804C1917.43 126.254 1927.23 128.567 1937.18 130.833C2041.54 154.586 2145.42 180.278 2254.74 209.374L2254.47 209.438Z" fill="#FFE492"/>
<path d="M2250.58 208.58C2142.27 179.166 2040.17 153.171 1938.45 129.105C1928.39 126.724 1918.47 124.272 1907.97 121.675C1868.61 111.946 1827.91 101.884 1779.82 95.7668C1724.77 88.7964 1666.09 89.0751 1621.11 90.0961C1519.35 92.3267 1419.91 101.073 1317.12 116.834C1266.48 124.637 1218.26 133.566 1171.63 142.203C1134.76 149.029 1099.95 155.478 1064.23 161.372C1056.16 162.705 1048.24 163.98 1040.71 165.161C995.335 172.269 954.544 177.518 916.009 181.208C869.868 185.628 826.984 187.852 784.907 188.007C763.498 188.085 742.331 187.604 722.006 186.576C700.7 185.497 680.196 183.811 661.063 181.563C619.3 176.657 584.195 169.153 556.726 159.259C555.436 158.791 554.139 158.311 552.875 157.831C531.62 149.779 515.429 140.878 499.769 132.269C495.339 129.834 490.755 127.315 486.15 124.865C464.345 113.241 441.947 103.439 417.676 94.897C414.529 93.7904 411.279 92.6801 408.014 91.5971C348.463 71.8589 269.111 55.6757 178.544 44.7969C71.0268 31.9363 -40.3338 27.1782 -135.016 31.3989C-198.176 34.2634 -259.915 43.7395 -292.301 55.539C-315.546 64.0087 -323.863 73.5339 -316.359 83.0865L-316.718 83.1038C-320.632 78.1244 -320.331 73.1651 -315.821 68.3642C-311.633 63.9076 -303.825 59.5748 -292.605 55.4871C-276.015 49.4421 -251.946 43.9635 -223 39.6435C-195.622 35.5576 -165.222 32.6758 -135.082 31.3087C-85.2731 29.0891 -31.2214 29.3186 25.571 31.9927C76.7574 34.4027 128.277 38.6826 178.701 44.714C269.324 55.5982 348.719 71.7915 408.304 91.5416C411.572 92.6245 414.826 93.7357 417.973 94.8433C442.258 103.389 464.664 113.196 486.479 124.825C491.089 127.275 495.669 129.794 500.102 132.23C515.755 140.835 531.939 149.732 553.179 157.779C554.443 158.259 555.74 158.739 557.026 159.205C609.393 178.066 690.32 188.263 784.899 187.914C861.642 187.631 942.866 180.376 1040.52 165.081C1048.04 163.901 1055.95 162.627 1064.02 161.293C1099.73 155.4 1134.55 148.954 1171.4 142.127C1218.04 133.49 1266.27 124.559 1316.93 116.754C1368.75 108.807 1418.3 102.792 1468.42 98.3627C1519.18 93.876 1569.12 91.1408 1621.08 90.0023C1666.1 88.9795 1724.85 88.7017 1779.99 95.6831C1828.13 101.807 1868.85 111.874 1908.23 121.607C1918.73 124.204 1928.65 126.656 1938.71 129.036C2040.43 153.102 2142.53 179.1 2250.85 208.515L2250.58 208.58Z" fill="#FFE492"/>
<path d="M2246.7 207.722C2139.39 177.989 2039.07 151.685 1939.98 127.31C1929.93 124.836 1919.99 122.264 1909.48 119.542C1871.24 109.639 1831.69 99.3984 1784.07 93.4198C1728.5 86.4749 1669.91 87.618 1625.08 89.3895C1529.32 93.1011 1434.13 102.77 1325.5 119.819C1284.75 126.242 1244.93 133.288 1206.43 140.102C1159.66 148.377 1115.49 156.195 1069.75 163.003C1061.51 164.231 1053.35 165.409 1045.51 166.504C999.316 172.947 957.265 177.589 916.949 180.693C894.368 182.432 872.076 183.691 850.693 184.437C827.884 185.232 805.332 185.47 783.663 185.144C739.699 184.482 698.522 181.584 661.281 176.53C621.061 171.073 586.832 163.264 559.546 153.318C558.263 152.847 556.977 152.366 555.721 151.888C534.92 143.954 518.439 135.264 502.504 126.861C497.679 124.317 492.692 121.687 487.676 119.127C464.992 107.522 442.107 97.8027 417.712 89.4132C414.52 88.3157 411.223 87.2154 407.918 86.1434C347.593 66.5892 267.644 50.6372 176.718 40.0126C68.4825 27.4152 -43.1822 22.9704 -137.707 27.4962C-238.918 32.4173 -337.542 53.6802 -320.395 79.4516L-320.758 79.4662C-325.048 73.0195 -322.535 66.6684 -313.29 60.5878C-304.848 55.0346 -290.995 49.8084 -272.114 45.0558C-254.56 40.6365 -233.499 36.8211 -209.522 33.7153C-186.717 30.7615 -161.908 28.5792 -137.78 27.4061C-88.0299 25.0243 -33.9196 25.0926 23.045 27.6101C74.356 29.8771 126.11 34.0222 176.872 39.9306C267.849 50.5625 347.846 66.5236 408.207 86.0887C411.516 87.1617 414.813 88.2619 418.008 89.3604C442.414 97.7535 465.311 107.478 488.006 119.088C493.022 121.648 498.009 124.278 502.834 126.823C518.765 135.223 535.239 143.91 556.028 151.839C557.281 152.317 558.564 152.797 559.846 153.267C612.289 172.382 691.784 183.669 783.685 185.054C861.487 186.224 947.071 180.132 1045.33 166.426C1053.17 165.331 1061.32 164.153 1069.56 162.926C1115.29 156.119 1159.46 148.303 1206.22 140.028C1244.73 133.213 1284.55 126.166 1325.3 119.742C1433.98 102.686 1529.21 93.0136 1625.02 89.2993C1655.14 88.1089 1680.08 87.7282 1703.52 88.1025C1733.47 88.5807 1759.87 90.293 1784.23 93.3379C1831.9 99.3228 1871.47 109.569 1909.74 119.478C1920.25 122.2 1930.18 124.771 1940.24 127.245C2039.33 151.622 2139.66 177.926 2246.96 207.661L2246.7 207.722Z" fill="#FFE492"/>
<path d="M2242.81 206.864C2136.53 176.806 2037.97 150.197 1941.51 125.514C1931.53 122.96 1921.67 120.285 1911.23 117.451C1874.02 107.359 1835.54 96.9216 1788.31 91.0714C1731.53 84.0682 1670.22 86.3534 1629.04 88.6815C1517.27 94.9223 1417.11 109.432 1333.87 122.803C1303.96 127.629 1274.12 132.74 1245.25 137.683C1187.36 147.599 1132.68 156.965 1075.28 164.634C1066.83 165.763 1058.44 166.844 1050.31 167.848C1003.22 173.658 959.904 177.691 917.899 180.176C870.282 182.993 824.705 183.702 782.426 182.281C738.992 180.821 698.307 177.192 661.506 171.495C622.905 165.52 589.552 157.406 562.365 147.377C561.097 146.906 559.818 146.424 558.569 145.945C538.285 138.157 521.599 129.705 505.459 121.532C500.171 118.853 494.701 116.084 489.205 113.389C465.297 101.638 442.591 92.2773 417.753 83.9288C414.518 82.8413 411.18 81.752 407.827 80.6891C346.722 61.3207 266.172 45.6001 174.887 35.2268C65.9335 22.8935 -46.0391 18.7612 -140.402 23.5921C-241.976 28.8612 -338.586 49.8353 -324.435 75.8162L-324.798 75.8281C-328.308 69.3823 -325.271 63.0376 -315.773 56.9706C-307.068 51.412 -293.133 46.1803 -274.352 41.4222C-256.838 36.9847 -235.887 33.1411 -212.078 29.996C-189.409 27.0013 -164.647 24.7561 -140.476 23.502C-90.7805 20.9581 -36.6152 20.8652 20.5179 23.2251C71.9534 25.3491 123.942 29.3594 175.041 35.144C266.381 45.5226 346.975 61.2524 408.109 80.6326C411.462 81.6964 414.803 82.7867 418.042 83.8742C442.895 92.2263 465.609 101.592 489.527 113.348C495.023 116.043 500.494 118.813 505.781 121.492C521.917 129.663 538.6 138.111 558.869 145.896C560.119 146.375 561.394 146.856 562.661 147.327C615.511 166.822 693.573 179.203 782.47 182.191C862.199 184.87 949.754 180.152 1050.14 167.766C1058.27 166.763 1066.67 165.682 1075.1 164.554C1132.49 156.887 1187.16 147.523 1245.05 137.608C1273.91 132.665 1303.75 127.552 1333.67 122.726C1389.64 113.735 1436.2 107.093 1480.2 101.822C1531.98 95.6173 1580.64 91.29 1628.95 88.5922C1658.41 86.9272 1684.08 86.1731 1707.43 86.2878C1737.51 86.4354 1764.02 87.9728 1788.47 90.9895C1835.77 96.8469 1874.26 107.29 1911.49 117.389C1921.94 120.222 1931.8 122.897 1941.77 125.449C2038.24 150.133 2136.8 176.744 2243.09 206.803L2242.81 206.864Z" fill="#FFE492"/>
<path d="M2238.93 206.005C2133.67 175.622 2036.88 148.706 1943.04 123.717C1933.2 121.096 1923.46 118.329 1913.15 115.398C1876.92 105.102 1839.47 94.4553 1792.56 88.7235C1735.16 81.7367 1674.01 84.9491 1633 87.9739C1531.74 95.3797 1441.41 109.481 1342.25 125.787C1324.36 128.739 1306.27 131.786 1288.78 134.733C1221.49 146.067 1151.92 157.787 1080.8 166.265C1072.16 167.296 1063.51 168.28 1055.1 169.191C1007.69 174.321 961.846 177.842 918.841 179.657C870.124 181.714 823.811 181.633 781.176 179.418C738.351 177.192 698.16 172.832 661.718 166.459C624.84 160.008 592.355 151.59 565.167 141.437C563.911 140.965 562.643 140.482 561.401 140.003C541.729 132.397 524.937 124.221 508.698 116.314C502.846 113.465 496.797 110.519 490.718 107.653C465.876 95.9135 442.698 86.6332 417.775 78.4468C414.503 77.3721 411.117 76.2919 407.717 75.2371C345.85 56.0509 264.707 40.5616 173.055 30.4416C63.3869 18.3725 -48.8897 14.5534 -143.099 19.6886C-241.449 25.1079 -339.842 45.3461 -328.48 72.1805L-328.843 72.1896C-331.573 65.7438 -328.011 59.4063 -318.261 53.3531C-309.296 47.788 -295.277 42.5518 -276.598 37.7882C-242.134 29.0007 -193.505 22.3709 -143.18 19.5984C-93.5432 16.8933 -39.3193 16.6383 17.986 18.8406C69.5461 20.8225 121.766 24.6971 173.201 30.3578C264.905 40.4833 346.096 55.9826 408.003 75.1779C411.407 76.2336 414.792 77.3138 418.068 78.3895C443.002 86.5804 466.191 95.8643 491.041 107.608C497.119 110.476 503.172 113.421 509.024 116.27C525.259 124.175 542.047 132.35 561.709 139.952C562.947 140.431 564.215 140.913 565.472 141.385C619.864 161.698 694.478 174.818 781.246 179.327C861.591 183.503 953.675 180.064 1054.95 169.107C1063.35 168.196 1071.99 167.213 1080.63 166.183C1151.73 157.707 1221.29 145.99 1288.56 134.658C1306.06 131.71 1324.15 128.664 1342.04 125.712C1385.44 118.574 1435.95 110.386 1486.08 103.551C1538.52 96.4008 1586.54 91.2774 1632.89 87.8874C1662.07 85.7352 1687.74 84.6185 1711.35 84.4746C1741.12 84.2924 1768.49 85.6951 1792.71 88.6425C1813.72 91.21 1834.87 95.0418 1857.37 100.357C1877.23 105.051 1895.63 110.281 1913.42 115.337C1923.72 118.268 1933.46 121.035 1943.3 123.655C2037.15 148.645 2133.94 175.562 2239.2 205.946L2238.93 206.005Z" fill="#FFE492"/>
<path d="M2235.04 205.147C2130.82 174.436 2035.8 147.213 1944.57 121.922C1934.9 119.244 1925.33 116.392 1915.2 113.374C1879.92 102.864 1843.44 91.996 1796.8 86.3772C1753.22 81.1428 1700.93 81.4342 1636.96 87.268C1547.51 95.3787 1467.56 108.945 1382.9 123.31C1372.36 125.099 1361.47 126.947 1350.62 128.774C1346.37 129.49 1342.12 130.209 1337.88 130.927C1257.22 144.561 1173.81 158.659 1086.32 167.897C1077.47 168.831 1068.59 169.719 1059.9 170.535C1011.45 175.083 964.307 177.978 919.797 179.138C869.955 180.437 822.898 179.568 779.941 176.555C737.783 173.597 698.087 168.506 661.956 161.422C626.935 154.555 595.322 145.833 567.992 135.496C566.746 135.024 565.49 134.54 564.255 134.06C545.33 126.692 528.593 118.846 512.401 111.258C505.847 108.185 499.064 105.007 492.253 101.914C466.451 90.1826 442.803 80.9824 417.822 72.9618C414.502 71.8962 411.077 70.8269 407.632 69.7822C344.981 50.7818 263.237 35.5229 171.226 25.6561C60.8473 13.852 -51.7408 10.3454 -145.793 15.7847C-242.336 21.4145 -340.59 41.8185 -332.519 68.5453L-332.885 68.5526C-334.831 62.1059 -330.749 55.7757 -320.746 49.738C-311.516 44.1665 -297.417 38.9239 -278.837 34.1567C-244.52 25.351 -196.059 18.6228 -145.877 15.6964C-96.2953 12.8291 -42.0165 12.412 15.4574 14.4577C67.1421 16.2957 119.6 20.0355 171.373 25.5723C263.435 35.4455 345.23 50.7125 407.907 69.723C411.351 70.7677 414.785 71.8388 418.104 72.9045C443.096 80.9296 466.759 90.1325 492.568 101.868C499.383 104.961 506.162 108.14 512.72 111.213C528.904 118.799 545.642 126.644 564.559 134.009C565.794 134.489 567.047 134.972 568.293 135.444C623.865 156.462 697.083 170.646 780.036 176.465C861.924 182.208 956.038 180.183 1059.77 170.448C1068.45 169.632 1077.33 168.745 1086.17 167.811C1173.64 158.577 1257.03 144.481 1337.67 130.849C1341.92 130.131 1346.16 129.413 1350.41 128.696C1361.26 126.87 1372.15 125.021 1382.69 123.233C1467.37 108.866 1547.35 95.2958 1636.83 87.1814C1665.73 84.5455 1691.39 83.0673 1715.27 82.6602C1745.16 82.151 1772.64 83.3742 1796.96 86.2943C1817.85 88.8109 1838.73 92.66 1860.81 98.062C1880.28 102.828 1898.18 108.159 1915.48 113.314C1925.62 116.332 1935.18 119.183 1944.84 121.86C2036.08 147.152 2131.1 174.376 2235.32 205.088L2235.04 205.147Z" fill="#FFE492"/>
<path d="M2231.16 204.289C2136.03 175.672 2040.12 147.355 1946.09 120.126C1936.52 117.37 1927.03 114.409 1916.99 111.275C1884.33 101.079 1847.3 89.5235 1801.05 84.0304C1756.95 78.805 1704.58 79.633 1640.92 86.5606C1565.23 94.7706 1498.24 106.843 1427.33 119.623C1405.12 123.625 1382.15 127.765 1358.99 131.758C1318.56 138.743 1274.82 146.134 1228.97 152.866C1179.87 160.076 1135.01 165.525 1091.83 169.527C1082.76 170.368 1073.63 171.16 1064.68 171.878C1015.2 175.852 966.785 178.114 920.768 178.6C869.827 179.137 822.026 177.487 778.688 173.691C698.659 166.594 628.713 151.745 570.795 129.555C569.561 129.082 568.315 128.597 567.087 128.117C549.123 121.075 532.678 113.645 516.777 106.46C509.291 103.078 501.553 99.5806 493.767 96.1769C466.983 84.4484 442.859 75.3294 417.848 67.4791C414.481 66.4225 411.011 65.3633 407.526 64.3295C344.113 45.5121 261.768 30.4856 169.398 20.871C58.3047 9.33104 -54.5875 6.13865 -148.485 11.8813C-245.615 17.8553 -341.407 37.9888 -336.56 64.9106L-336.926 64.9142C-338.088 58.4657 -333.478 52.1428 -323.23 46.1206C-313.733 40.5418 -299.553 35.2937 -281.079 30.5229C-263.675 26.028 -243.047 22.0979 -219.769 18.8408C-197.169 15.6794 -173.218 13.3076 -148.577 11.7921C-99.0504 8.76361 -44.713 8.18433 12.9295 10.0724C64.7387 11.7693 117.427 15.3734 169.537 20.7863C261.962 30.4063 344.355 45.442 407.805 64.2685C411.289 65.3032 414.766 66.3633 418.134 67.4199C443.155 75.2747 467.29 84.3974 494.085 96.1296C501.871 99.5342 509.61 103.032 517.095 106.414C532.997 113.599 549.438 121.028 567.395 128.067C568.619 128.548 569.868 129.032 571.099 129.505C628.973 151.677 698.857 166.514 778.809 173.604C861.165 180.818 959.98 180.191 1064.57 171.791C1073.51 171.072 1082.64 170.282 1091.7 169.442C1188.25 160.495 1276.58 145.883 1358.78 131.682C1381.94 127.689 1404.9 123.55 1427.11 119.548C1498.04 106.765 1565.04 94.6905 1640.77 86.4768C1704.52 79.5382 1757 78.7103 1801.2 83.9475C1821.92 86.4076 1842.49 90.2639 1864.09 95.7352C1883.13 100.56 1900.49 105.978 1917.28 111.217C1927.32 114.351 1936.8 117.311 1946.37 120.066C2040.4 147.295 2136.31 175.612 2231.44 204.231L2231.16 204.289Z" fill="#FFE492"/>
<path d="M2227.27 203.431C2133.6 174.655 2039.51 146.022 1947.62 118.329C1938.35 115.543 1929.15 112.53 1919.4 109.34C1887.54 98.9071 1851.43 87.0811 1805.29 81.6809C1760.67 76.4647 1708.2 77.8291 1644.87 85.8506C1578.53 94.2428 1517.57 106.093 1458.63 117.553C1429.07 123.3 1398.5 129.242 1367.36 134.74C1318.2 143.428 1276.84 150.055 1237.2 155.597C1188.31 162.431 1142.56 167.52 1097.35 171.156C1088.07 171.903 1078.69 172.597 1069.48 173.219C1021.46 176.459 974.314 178.099 929.209 178.099C926.703 178.099 924.212 178.094 921.72 178.084C869.574 177.873 821.033 175.43 777.446 170.825C756.407 168.59 735.804 165.752 716.212 162.392C697.797 159.233 679.701 155.512 662.425 151.333C631.343 143.816 602.287 134.748 573.605 123.613C572.374 123.134 571.146 122.654 569.926 122.172C553.284 115.602 537.54 108.735 522.316 102.093C513.526 98.2595 504.439 94.2948 495.287 90.4357C467.107 78.5459 443.235 69.773 417.877 61.9919C414.466 60.9454 410.952 59.8962 407.423 58.8724C343.241 40.2418 260.298 25.4465 167.569 16.0843C55.7651 4.80937 -57.4349 1.93029 -151.179 7.97626C-246.487 14.1406 -342.155 34.4271 -340.598 61.2733L-340.964 61.2742C-341.69 48.7697 -321.754 36.879 -283.315 26.8883C-265.94 22.3725 -245.421 18.4142 -222.323 15.1207C-199.848 11.9164 -175.944 9.48274 -151.271 7.887C-101.803 4.69643 -47.4065 3.95594 10.4045 5.68648C62.3384 7.24123 115.261 10.7105 167.705 15.9987C260.492 25.3673 343.482 40.1716 407.705 58.8132C411.234 59.8379 414.755 60.888 418.166 61.9345C443.536 69.7202 467.418 78.4958 495.605 90.3901C504.758 94.2501 513.849 98.2149 522.635 102.049C537.859 108.689 553.6 115.556 570.238 122.124C571.458 122.606 572.682 123.086 573.913 123.564C634.86 147.225 701.483 162.657 777.589 170.741C882.999 181.878 994.447 178.189 1069.38 173.132C1078.59 172.51 1087.96 171.817 1097.24 171.07C1201.22 162.707 1296.1 147.222 1367.15 134.666C1398.29 129.17 1428.85 123.228 1458.4 117.482C1517.37 106.02 1578.33 94.1663 1644.71 85.7705C1673.04 82.181 1698.69 79.9768 1723.1 79.0332C1753.22 77.8692 1780.92 78.7326 1805.44 81.5999C1826.1 84.0181 1846.48 87.9054 1867.72 93.4832C1886.44 98.398 1903.35 103.933 1919.7 109.287C1929.44 112.475 1938.63 115.488 1947.9 118.272C2039.79 145.965 2133.88 174.597 2227.56 203.374L2227.27 203.431Z" fill="#FFE492"/>
<path d="M2223.39 202.573L1949.15 116.534C1940.19 113.724 1931.3 110.667 1921.88 107.431C1890.81 96.7505 1855.58 84.6458 1809.53 79.3349C1765 74.1997 1710.94 76.1543 1648.83 85.145C1589.13 93.7877 1534.68 105.281 1482.02 116.397C1447.7 123.642 1412.2 131.134 1375.74 137.727C1266.13 157.544 1170.34 169.249 1074.28 174.564C1034.43 176.768 995.114 177.877 956.99 177.877C945.434 177.877 933.995 177.775 922.676 177.571C869.299 176.61 820.018 173.376 776.207 167.962C735.602 162.944 698.457 155.859 662.659 146.303C634.072 138.672 606.669 129.575 576.423 117.674C560.458 111.393 545 104.867 530.051 98.5557C496.217 84.2742 461.233 69.5063 417.921 56.509C351.485 36.5741 264.281 20.9409 165.737 11.2991C53.2257 0.290109 -60.282 -2.27656 -153.872 4.07271C-244.483 10.2198 -342.829 29.6037 -344.639 57.6385L-345.006 57.6366C-344.196 45.1057 -323.637 33.2169 -285.553 23.2553C-251.119 14.2483 -204.388 7.40446 -153.967 3.98436C-104.554 0.632574 -50.0997 -0.27004 7.87616 1.30293C59.9346 2.71469 113.092 6.05008 165.873 11.2144C214.633 15.9852 260.943 22.2653 303.519 29.8806C346.45 37.5596 385.036 46.4983 418.199 56.4489C461.53 69.4508 496.525 84.2223 530.366 98.5075C545.315 104.818 560.773 111.343 576.734 117.623C620.863 134.988 683.438 156.393 776.372 167.879C882.951 181.05 997.155 178.735 1074.19 174.473C1170.21 169.162 1265.95 157.462 1375.52 137.651C1411.97 131.061 1447.46 123.569 1481.78 116.326C1534.45 105.208 1588.92 93.7121 1648.65 85.0648C1710.86 76.0587 1765.04 74.1023 1809.69 79.2511C1830.31 81.6292 1850.49 85.5503 1871.4 91.2401C1889.8 96.2487 1906.26 101.906 1922.18 107.376C1931.59 110.612 1940.49 113.668 1949.44 116.477L2223.68 202.516L2223.39 202.573Z" fill="#FFE492"/>
<path d="M2221.18 195.959C2151.35 172.003 2091.43 152.563 2032.62 134.783C2004.08 126.146 1974.92 117.645 1945.97 109.515C1937.21 107.056 1928.54 104.44 1919.35 101.67C1896.27 94.7086 1872.4 87.5104 1844.93 82.1685C1830.18 79.2949 1815.98 77.2374 1801.52 75.8784C1757.14 71.6659 1705.07 74.4512 1646.75 84.1577C1616.57 89.1736 1589.09 94.8816 1566.19 99.8036C1541.95 105.014 1518.03 110.761 1494.9 116.318C1461.66 124.305 1427.28 132.565 1390.33 139.658C1367.84 143.987 1345.05 147.855 1322.58 151.156C1277.62 157.759 1229.36 163.201 1179.15 167.328C1148.13 169.85 1116.95 171.757 1086.5 172.994C1060.26 174.056 1033.96 174.669 1008.35 174.815C970.012 175.036 932.661 174.195 897.333 172.314C859.769 170.314 824.221 167.122 791.677 162.824C762.658 158.993 735.247 154.168 707.881 148.074C656.885 136.727 616.21 123.607 586.473 113.444C571.865 108.428 557.601 103.313 543.806 98.3664C504.084 84.1204 466.564 70.665 419.614 58.6796C381.321 48.9685 337.631 40.5881 289.746 33.7698C252.948 28.5299 212.926 24.2445 170.793 21.0321C160.758 20.2679 150.531 19.5557 140.408 18.9172C96.8206 16.1729 47.752 14.3859 -5.43133 13.6053C-59.0506 12.8002 -105.441 13.497 -147.244 15.7376C-170.877 16.9945 -193.773 18.9664 -215.307 21.5977C-291.328 30.888 -340.143 46.4838 -345.889 63.3174L-346.347 63.3074C-344.815 58.8199 -340.319 54.3997 -332.988 50.1681C-326.022 46.1486 -316.456 42.2722 -304.555 38.6463C-282.069 31.797 -251.276 25.8658 -215.508 21.4948C-193.942 18.8589 -171.009 16.8843 -147.339 15.6255C-105.492 13.3831 -59.0653 12.6854 -5.40203 13.4915C47.8106 14.2721 96.9048 16.0609 140.521 18.807C150.656 19.4464 160.886 20.1586 170.929 20.9237C213.095 24.138 253.15 28.427 289.977 33.6714C337.895 40.4943 381.621 48.882 419.932 58.5994C466.913 70.5921 504.439 84.0512 544.176 98.3008C557.967 103.247 572.231 108.362 586.836 113.377C616.558 123.535 657.214 136.649 708.181 147.988C735.518 154.076 762.9 158.896 791.886 162.723C855.577 171.133 928.4 175.163 1008.33 174.701C1033.93 174.555 1060.2 173.942 1086.43 172.881C1116.86 171.644 1148.01 169.739 1179 167.219C1229.19 163.094 1277.41 157.657 1322.34 151.057C1344.8 147.759 1367.58 143.892 1390.04 139.567C1426.98 132.477 1461.35 124.22 1494.58 116.235C1517.71 110.677 1541.63 104.929 1565.89 99.7162C1588.8 94.7914 1616.29 89.0816 1646.5 84.0621C1672.46 79.7403 1697.6 76.7546 1721.22 75.1871C1750.24 73.2617 1777.31 73.4584 1801.68 75.7719C1816.19 77.1354 1830.42 79.1983 1845.21 82.0783C1872.72 87.4284 1896.6 94.6311 1919.7 101.597C1928.89 104.366 1937.56 106.982 1946.31 109.439C1975.27 117.57 2004.43 126.072 2032.98 134.711C2091.79 152.493 2151.71 171.934 2221.55 195.892L2221.18 195.959Z" fill="#FFE492"/>
<path d="M2218.97 189.343C2154.22 164.981 2093.46 144.596 2033.19 127.021C2003.81 118.437 1973.39 110.185 1942.79 102.495C1934.67 100.455 1926.66 98.3345 1918.17 96.0903C1892.76 89.3694 1866.48 82.4199 1837.05 77.6117C1822.19 75.1735 1807.95 73.4757 1793.51 72.421C1738.22 68.3807 1682.06 76.0351 1644.67 83.1677C1618.19 88.2063 1594 93.9034 1569.49 99.7845C1548.05 104.932 1527.87 110.47 1506.51 116.332C1474.8 125.034 1442.02 134.032 1404.92 141.587C1382.9 146.095 1359.92 149.992 1336.62 153.171C1293.22 159.093 1245.7 163.692 1191.33 167.231C1160.9 169.211 1129.75 170.622 1098.72 171.423C1072.54 172.09 1046.41 172.329 1021.04 172.129C983.313 171.836 946.431 170.517 911.417 168.21C874.645 165.787 839.559 162.245 807.136 157.685C778.728 153.69 751.3 148.733 723.281 142.533C672.395 131.287 628.804 118.82 596.517 109.214C584.565 105.658 572.803 102.081 561.426 98.6196C516.121 84.8372 473.328 71.8181 421.307 60.8501C382.428 52.6528 338.778 45.7215 291.578 40.2493C255.865 36.1088 218.012 33.0066 175.861 30.7651C166.133 30.2486 156.237 29.7832 146.45 29.3815C103.464 27.6264 57.5864 26.9624 2.08012 26.2757C-37.931 25.7556 -90.3082 25.4131 -140.626 27.4005C-164.457 28.3241 -187.493 29.928 -209.1 32.1659C-285.172 40.0471 -336.776 53.815 -347.145 68.9964L-347.688 68.9736C-344.939 64.9478 -339.37 60.9994 -331.144 57.2369C-323.303 53.6519 -313 50.2145 -300.524 47.0176C-276.814 40.9443 -245.274 35.7645 -209.312 32.0393C-187.665 29.7969 -164.585 28.1902 -140.714 27.2648C-90.3485 25.2747 -37.931 25.6181 2.10575 26.1381C57.6304 26.8249 103.522 27.4889 146.538 29.2449C156.332 29.6475 166.236 30.1129 175.975 30.6293C218.166 32.8736 256.056 35.9785 291.809 40.1236C339.057 45.6013 382.743 52.538 421.662 60.7435C473.72 71.7197 516.531 84.7425 561.851 98.5304C573.224 101.991 584.986 105.568 596.938 109.123C629.218 118.725 672.791 131.188 723.647 142.428C751.633 148.622 779.032 153.573 807.407 157.564C871.161 166.531 943.049 171.384 1021.06 171.991C1046.4 172.19 1072.51 171.952 1098.66 171.284C1129.66 170.484 1160.79 169.075 1191.19 167.096C1245.51 163.56 1293 158.965 1336.36 153.049C1359.63 149.874 1382.58 145.982 1404.57 141.479C1441.64 133.93 1474.41 124.936 1506.11 116.238C1527.48 110.374 1547.66 104.835 1569.12 99.6843C1593.63 93.7996 1617.83 88.1006 1644.34 83.0566C1668.58 78.4324 1692.48 75.1061 1715.39 73.1679C1743.17 70.818 1769.51 70.522 1793.67 72.2871C1808.16 73.3464 1822.45 75.0496 1837.36 77.4952C1866.84 82.3124 1893.14 89.2683 1918.58 95.9946C1927.06 98.238 1935.08 100.357 1943.19 102.397C1973.8 110.089 2004.22 118.344 2033.62 126.931C2093.89 144.51 2154.68 164.899 2219.43 189.266L2218.97 189.343Z" fill="#FFE492"/>
<path d="M2216.76 182.727C2156.16 157.629 2096.31 136.869 2033.77 119.261C2003.53 110.729 1971.85 102.728 1939.62 95.4765C1932.73 93.9263 1925.63 92.2814 1918.77 90.6911C1890.45 84.1205 1861.16 77.3268 1829.18 73.056C1814.17 71.0376 1799.88 69.6987 1785.51 68.9637C1730.33 66.1411 1677.34 74.5916 1642.59 82.1769C1619.05 87.2975 1597.52 93.1011 1576.7 98.7145L1572.8 99.7656C1553.9 104.858 1536.17 110.443 1517.4 116.357C1487.5 125.774 1456.59 135.51 1419.51 143.516C1397.93 148.209 1374.77 152.135 1350.67 155.187C1308.64 160.507 1261.88 164.303 1203.5 167.134C1173.31 168.597 1142.17 169.512 1110.93 169.851C1084.81 170.123 1058.84 169.986 1033.73 169.443C957.701 167.804 886.663 162.119 822.587 152.545C794.887 148.407 767.44 143.32 738.681 136.991C690.012 126.305 646.725 115.32 606.563 104.985C601.177 103.6 595.85 102.224 590.563 100.859C535.709 86.6963 483.899 73.3192 423.011 63.0234C383.26 56.3016 339.654 50.8204 293.41 46.7308C259.46 43.7288 222.665 41.6904 180.932 40.499C171.527 40.2322 161.96 40.0127 152.496 39.8469C128.687 39.437 103.434 39.3705 76.6981 39.3004C55.2233 39.2439 33.0193 39.1857 9.58787 38.9479C-35.6665 38.4497 -86.9555 37.8859 -134.016 39.0663C-158.298 39.6757 -181.473 40.9107 -202.9 42.7378C-278.943 49.2228 -333.339 61.1644 -348.409 74.6818L-349.028 74.639C-345.057 71.075 -338.417 67.5984 -329.298 64.3058C-320.577 61.1572 -309.541 58.1569 -296.497 55.389C-271.549 50.0954 -239.254 45.6688 -203.112 42.5866C-181.637 40.755 -158.415 39.5172 -134.086 38.9069C-86.9774 37.7256 -35.6628 38.2903 9.60985 38.7885C33.0266 39.0253 55.2306 39.0845 76.6981 39.141C103.445 39.2112 128.705 39.2776 152.536 39.6884C162.008 39.8551 171.585 40.0746 180.998 40.3415C222.783 41.5337 259.621 43.5749 293.619 46.5814C339.918 50.6755 383.571 56.1632 423.366 62.8923C484.31 73.1972 536.145 86.5806 591.021 100.749C596.308 102.115 601.639 103.49 607.021 104.876C647.175 115.209 690.448 126.191 739.102 136.874C767.832 143.195 795.25 148.277 822.917 152.41C886.909 161.972 957.855 167.649 1033.78 169.286C1058.87 169.829 1084.81 169.965 1110.9 169.693C1142.1 169.354 1173.22 168.441 1203.37 166.979C1261.69 164.151 1308.41 160.359 1350.37 155.046C1374.43 152.002 1397.54 148.082 1419.08 143.398C1456.12 135.402 1487.01 125.671 1516.89 116.259C1535.67 110.343 1553.41 104.755 1572.33 99.659L1576.22 98.6079C1597.05 92.9918 1618.59 87.1845 1642.17 82.0585C1677.02 74.4486 1730.2 65.9735 1785.63 68.8089C1800.07 69.5476 1814.41 70.891 1829.48 72.9176C1861.53 77.1975 1890.85 83.9985 1919.21 90.5764C1926.06 92.1666 1933.16 93.8116 1940.04 95.3609C1972.29 102.615 2003.98 110.622 2034.24 119.158C2096.81 136.774 2156.68 157.541 2217.3 182.647L2216.76 182.727Z" fill="#FFE492"/>
<path d="M2214.55 176.109C2158.91 150.633 2098.28 128.895 2034.34 111.5C2003.26 103.022 1970.32 95.2704 1936.45 88.4594C1931.56 87.4757 1926.55 86.4547 1921.7 85.4673C1889.69 78.945 1856.59 72.1995 1821.33 68.5017C1806.19 66.8977 1791.86 65.9186 1777.52 65.5069C1722.5 63.9294 1672.65 73.1623 1640.52 81.1856C1620.57 86.1422 1602.57 91.6545 1585.15 96.9855C1582.14 97.9081 1579.13 98.8289 1576.11 99.7461C1559.55 104.785 1544.06 110.414 1527.66 116.372C1499.79 126.502 1470.96 136.976 1434.1 145.447C1412.45 150.421 1389.76 154.266 1364.71 157.205C1312.32 163.35 1259.97 165.624 1215.67 167.04C1185.7 167.996 1154.57 168.415 1123.14 168.282C1097.1 168.159 1071.29 167.646 1046.42 166.759C972.673 164.135 902.565 157.625 838.045 147.408C811.199 143.158 783.737 137.939 754.084 131.453C724.131 124.917 696.218 118.628 669.222 112.546C650.876 108.412 633.545 104.507 616.621 100.761C552.647 86.5995 494.049 74.1487 424.729 65.199C384.124 59.9573 340.563 55.9243 295.253 53.2128C262.779 51.2691 228.066 50.3228 186.014 50.2326C176.942 50.2162 167.701 50.2426 158.552 50.3118C144.655 50.4239 130.277 50.6579 115.06 50.9066C85.8582 51.3829 52.7537 51.9231 17.0955 51.6207C3.5166 51.505 -10.3371 51.342 -23.7364 51.1835C-58.2002 50.7763 -93.8365 50.3556 -127.41 50.7317C-152.065 51.0086 -175.383 51.8757 -196.708 53.3093C-272.622 58.4144 -329.807 68.5308 -349.681 80.3704L-350.358 80.3003C-345.155 77.1999 -337.446 74.196 -327.447 71.3716C-317.844 68.6592 -306.075 66.0971 -292.474 63.7572C-266.265 59.2487 -233.22 55.5754 -196.905 53.1335C-175.53 51.6963 -152.16 50.8264 -127.45 50.5496C-93.8402 50.1725 -58.1892 50.5942 -23.7071 51.0013C-10.3114 51.1598 3.54225 51.3228 17.1175 51.4385C52.7428 51.7409 85.8215 51.2017 115.009 50.7253C130.233 50.4767 144.614 50.2426 158.527 50.1306C167.687 50.0614 176.935 50.0349 186.018 50.0513C228.129 50.1406 262.893 51.0897 295.422 53.0361C340.786 55.7512 384.406 59.7888 425.062 65.0378C456.375 69.08 488.106 74.2015 522.067 80.6938C552.472 86.5057 582.047 92.865 617.105 100.625C634.029 104.372 651.36 108.277 669.709 112.411C696.702 118.492 724.615 124.782 754.561 131.317C784.184 137.796 811.617 143.01 838.43 147.255C902.862 157.458 972.87 163.959 1046.51 166.58C1071.36 167.466 1097.14 167.978 1123.14 168.101C1154.54 168.234 1185.64 167.816 1215.56 166.859C1259.81 165.447 1312.1 163.175 1364.39 157.041C1389.37 154.111 1412.01 150.275 1433.6 145.314C1470.39 136.858 1499.2 126.392 1527.05 116.27C1543.46 110.308 1558.95 104.676 1575.54 99.6323C1578.55 98.7151 1581.56 97.7943 1584.57 96.8725C1602 91.5379 1620.02 86.022 1639.99 81.059C1660.9 75.8391 1682.34 71.8234 1703.73 69.1237C1729.07 65.9259 1753.92 64.6489 1777.59 65.3284C1792 65.7419 1806.4 66.7256 1821.6 68.3359C1856.95 72.0438 1890.1 78.7975 1922.15 85.328C1927 86.3153 1932.01 87.3363 1936.89 88.3191C1970.79 95.1356 2003.75 102.895 2034.86 111.379C2068.81 120.616 2102.06 131.139 2133.68 142.657C2161.63 152.837 2189.05 164.064 2215.17 176.024L2214.55 176.109Z" fill="#FFE492"/>
<path d="M2212.33 169.491C2160.84 143.284 2101.15 121.162 2034.92 103.739C2002.98 95.3151 1968.79 87.8137 1933.29 81.4416C1931.6 81.1383 1929.91 80.835 1928.22 80.5308C1891.3 73.8965 1853.13 67.0362 1813.49 63.9477C1798.13 62.7509 1783.75 62.1306 1769.55 62.0504C1714.75 61.7426 1668.02 71.7469 1638.47 80.1929C1621.08 85.134 1605.64 90.5497 1590.71 95.7869C1587.02 97.0821 1583.2 98.421 1579.44 99.7253C1565.09 104.693 1551.75 110.341 1537.62 116.321C1511.94 127.199 1485.38 138.447 1448.71 147.376C1427.49 152.542 1404.61 156.417 1378.76 159.222C1327.84 164.748 1276.13 166.199 1227.84 166.944C1198.06 167.403 1166.94 167.325 1135.34 166.712C1109.4 166.193 1083.75 165.305 1059.11 164.073C987.871 160.521 918.694 153.185 853.507 142.269C827.401 137.898 800.705 132.701 769.499 125.914C710.189 113.05 666.148 103.989 626.701 96.5356C548.243 81.7121 488.362 72.9911 426.48 67.375C385.051 63.6152 341.534 61.0312 297.129 59.6942C266.322 58.767 233.628 58.8499 191.125 59.9656C182.416 60.1969 173.505 60.4693 164.638 60.7762C156.262 61.0704 147.754 61.4074 138.745 61.7635C105.479 63.0797 67.7725 64.5716 24.6177 64.2929C1.8714 64.1462 -21.3622 63.7446 -43.83 63.3565C-69.3645 62.9157 -95.7675 62.4594 -120.8 62.3975C-145.899 62.3355 -169.359 62.8347 -190.512 63.8821C-266.174 67.6264 -326.154 75.9194 -350.956 86.0649L-351.659 85.9583C-345.218 83.3225 -336.439 80.7913 -325.568 78.435C-315.074 76.1598 -302.58 74.0367 -288.429 72.1231C-260.942 68.4052 -227.137 65.4851 -190.673 63.6808C-169.462 62.6315 -145.95 62.1306 -120.793 62.1925C-95.7382 62.2545 -69.3206 62.7108 -43.775 63.1525C-21.3145 63.5405 1.90802 63.9422 24.6359 64.0888C67.7139 64.3666 105.38 62.8765 138.609 61.5622C147.623 61.2052 156.138 60.8691 164.517 60.574C173.395 60.2671 182.314 59.9947 191.03 59.7625C233.599 58.6458 266.348 58.562 297.221 59.492C341.688 60.8309 385.267 63.4185 426.755 67.1838C488.721 72.8071 548.664 81.5373 627.192 96.3735C666.653 103.829 710.71 112.893 770.034 125.761C801.218 132.543 827.885 137.734 853.962 142.101C919.061 153.001 988.135 160.327 1059.26 163.874C1083.87 165.103 1109.49 165.99 1135.4 166.509C1166.96 167.121 1198.04 167.199 1227.78 166.741C1276 165.997 1327.62 164.55 1378.43 159.036C1404.18 156.242 1426.98 152.38 1448.12 147.232C1484.71 138.322 1511.25 127.086 1536.91 116.22C1551.04 110.236 1564.39 104.584 1578.76 99.6087C1582.53 98.3053 1586.35 96.9664 1590.03 95.6712C1604.97 90.4295 1620.42 85.0102 1637.84 80.0608C1657.12 74.5486 1677.34 70.1885 1697.93 67.1009C1722.05 63.4841 1746.15 61.718 1769.56 61.8482C1783.85 61.9284 1798.29 62.5523 1813.73 63.7546C1853.5 66.8541 1891.73 73.7234 1928.7 80.3678C1930.39 80.672 1932.08 80.9762 1933.77 81.2786C1969.31 87.6579 2003.54 95.1685 2035.51 103.602C2101.8 121.04 2161.54 143.179 2213.07 169.404L2212.33 169.491Z" fill="#FFE492"/>
<path d="M1246.07 166.849C1244.01 166.849 1241.99 166.849 1239.99 166.846C1210.37 166.815 1179.26 166.241 1147.54 165.139C1121.69 164.224 1096.2 162.96 1071.79 161.385C1036.91 159.139 1001.9 155.911 967.733 151.792C934.739 147.813 901.51 142.88 868.966 137.129C837.078 131.494 807.293 125.214 784.906 120.373C732.525 109.078 682.687 99.6361 636.777 92.3104C562.419 80.4462 496.155 73.2134 428.235 69.5492C387.261 67.3387 343.3 66.1729 300.973 66.1729C300.317 66.1729 299.665 66.1729 299.009 66.1738C262.647 66.2047 228.125 67.8843 196.24 69.695C187.941 70.1695 179.357 70.6878 170.724 71.237C165.994 71.5412 161.256 71.8545 156.244 72.186C120.89 74.5277 80.8164 77.1809 32.1325 76.9632C2.48324 76.8303 -27.7999 76.067 -57.0865 75.3283C-75.9965 74.8511 -95.5477 74.3583 -114.198 74.0605C-139.835 73.6515 -163.427 73.7827 -184.327 74.4521C-259.586 76.8603 -322.362 83.3307 -352.256 91.7612L-352.945 91.6109C-337.611 87.2873 -314.546 83.5439 -284.391 80.4835C-255.592 77.5617 -221.029 75.3976 -184.444 74.2272C-163.49 73.5568 -139.835 73.4238 -114.139 73.8346C-95.4707 74.1324 -75.9085 74.6261 -56.9912 75.1034C-27.723 75.842 2.54184 76.6053 32.1508 76.7374C80.7101 76.9551 120.714 74.3055 156.009 71.9684C161.025 71.6359 165.763 71.3226 170.497 71.0184C179.137 70.4692 187.729 69.95 196.035 69.4755C227.975 67.662 262.556 65.9798 299.005 65.9479C342.006 65.9106 386.755 67.08 428.43 69.3288C463.483 71.2206 497.467 74.0049 532.316 77.8413C565.878 81.5364 600.21 86.2071 637.268 92.121C683.215 99.4521 733.089 108.901 785.503 120.204C807.872 125.042 837.635 131.317 869.49 136.946C935.527 148.617 1003.67 156.766 1072.02 161.168C1096.4 162.741 1121.85 164.002 1147.67 164.917C1179.35 166.017 1210.41 166.591 1239.99 166.621C1286.28 166.668 1340.03 166.28 1392.46 161.029C1418.99 158.372 1441.95 154.485 1462.64 149.149C1498.98 139.776 1523.06 127.747 1546.36 116.114C1558.35 110.13 1569.67 104.477 1581.97 99.5842C1585.92 98.0167 1589.9 96.4018 1593.74 94.8397C1606.74 89.5625 1620.18 84.1067 1635.67 79.0636C1653.36 73.2617 1672.35 68.5555 1692.11 65.0762C1715.01 61.0423 1738.36 58.7853 1761.5 58.3681C1775.79 58.1104 1790.29 58.3736 1805.83 59.1733C1847.38 61.31 1888.57 67.5181 1930.62 74.2372C1967.28 80.0955 2003.77 87.5596 2036.14 95.8234C2072.1 104.976 2105.89 115.714 2136.56 127.737C2163.88 138.449 2188.91 150.241 2210.95 162.784L2210.11 162.876C2162.78 135.937 2104.03 113.431 2035.49 95.9828C2003.16 87.7309 1966.73 80.2777 1930.13 74.4294C1888.15 67.7221 1847.04 61.5259 1805.64 59.3964C1790.19 58.6013 1775.77 58.3399 1761.57 58.5958C1719.04 59.3636 1674.59 66.6811 1636.4 79.202C1620.94 84.2361 1607.51 89.6873 1594.52 94.9591C1590.68 96.522 1586.69 98.1378 1582.75 99.7053C1570.47 104.589 1559.15 110.237 1547.18 116.216C1535.75 121.924 1523.93 127.827 1510.37 133.501C1494.99 139.934 1479.6 145.104 1463.3 149.307C1442.52 154.667 1419.46 158.571 1392.8 161.242C1369.29 163.597 1344.02 165.153 1315.55 166.002C1291.43 166.717 1267.22 166.849 1246.07 166.849Z" fill="#FFE492"/>
<path d="M1304.82 167.306C1286.14 167.306 1268.19 167.029 1252.14 166.748C1222.62 166.233 1191.52 165.163 1159.73 163.567C1133.98 162.256 1108.66 160.619 1084.45 158.698C1018.18 153.449 952.74 144.711 884.41 131.988C854.61 126.44 826.518 120.471 800.306 114.833C748.555 103.735 696.929 94.7359 646.853 88.0851C573.206 78.3039 504.301 73.1041 430.002 71.7215C387.667 70.9336 343.025 71.2552 300.896 72.6505C265.633 73.8182 232.39 76.6362 201.356 79.4215C193.591 80.1219 185.333 80.887 176.814 81.6949C174.685 81.898 172.538 82.1047 170.362 82.3133C134.619 85.7489 94.1755 89.6363 42.271 89.6363C41.3953 89.6363 40.5233 89.6353 39.6403 89.6326C4.52426 89.5443 -31.3282 88.2983 -66.0045 87.0923C-79.7519 86.6142 -93.9683 86.1205 -107.609 85.7207C-134.254 84.941 -157.33 84.7106 -178.16 85.0184C-253.921 86.1387 -317.869 90.6709 -353.601 97.4556L-354.213 97.2561C-336.549 93.9025 -311.007 90.9906 -280.357 88.8356C-250.21 86.7162 -214.892 85.3099 -178.223 84.768C-157.334 84.4592 -134.199 84.6896 -107.496 85.4711C-93.8401 85.871 -79.62 86.3655 -65.869 86.8428C-31.2256 88.0469 4.59388 89.292 39.6439 89.3803C92.6294 89.5151 133.732 85.5631 169.992 82.0774C172.164 81.8689 174.315 81.6621 176.444 81.4581C184.97 80.6493 193.232 79.8842 201.004 79.1838C232.089 76.393 265.395 73.5714 300.753 72.4001C342.948 71.0029 387.664 70.6804 430.067 71.4692C466.887 72.1541 501.992 73.7717 537.387 76.4131C573.84 79.1337 609.799 82.878 647.318 87.862C697.457 94.5218 749.149 103.532 800.955 114.641C827.156 120.277 855.23 126.243 885.004 131.785C953.242 144.491 1018.58 153.215 1084.75 158.456C1108.92 160.374 1134.21 162.009 1159.92 163.318C1191.67 164.912 1222.72 165.981 1252.2 166.495C1301.8 167.36 1354.57 167.805 1406.48 163.017C1433.8 160.496 1456.91 156.585 1477.15 151.06C1513.19 141.216 1535.63 127.79 1555.42 115.944C1565.38 109.984 1574.79 104.354 1585.17 99.555C1588.92 97.8235 1592.69 96.0338 1596.33 94.3032C1607.74 88.8885 1619.53 83.2897 1633.48 78.0607C1649.63 71.9692 1667.39 66.917 1686.28 63.0442C1707.97 58.5967 1730.56 55.8497 1753.43 54.8815C1767.73 54.2758 1782.28 54.1793 1797.92 54.5837C1841.61 55.7158 1886 61.31 1927.46 67.1875C1965.75 72.6141 2003.54 79.8241 2036.77 88.0378C2073.73 97.1477 2107.78 107.993 2137.98 120.27C2164.98 131.248 2188.82 143.322 2208.83 156.157L2207.89 156.248C2165.36 128.965 2105.94 105.44 2036.06 88.2145C2002.9 80.0163 1965.18 72.8199 1926.97 67.4042C1885.6 61.5404 1841.33 55.9599 1797.82 54.8323C1782.27 54.4297 1767.81 54.5263 1753.61 55.1274C1711.38 56.9153 1669.02 65.1081 1634.33 78.1974C1620.4 83.4154 1608.62 89.0087 1597.23 94.418C1593.59 96.1495 1589.82 97.9392 1586.07 99.6725C1575.71 104.461 1566.31 110.085 1556.36 116.039C1536.53 127.903 1514.06 141.351 1477.89 151.227C1457.55 156.783 1434.3 160.716 1406.83 163.251C1383 165.449 1357.28 166.723 1328.21 167.141C1320.36 167.259 1312.53 167.306 1304.82 167.306Z" fill="#FFE492"/>
<path d="M1341.7 168.292C1341.43 168.292 1341.17 168.292 1340.9 168.292C1314.5 168.276 1288.58 167.472 1264.28 166.651C1234.81 165.654 1203.73 164.087 1171.92 161.994C1146.29 160.29 1121.13 158.276 1097.13 156.01C1033.5 150.01 970.818 140.744 899.865 126.848C874.312 121.845 849.166 116.458 824.844 111.249C821.803 110.597 818.758 109.945 815.713 109.294C763.695 98.1986 710.277 89.6415 656.947 83.8615C583.92 75.9475 510.269 72.6868 431.786 73.8936C388.752 74.5558 344.15 76.3656 302.801 79.1271C270.177 81.3067 241.106 84.8033 206.489 89.1479C199.472 90.0323 191.979 90.9868 182.914 92.1527L182.409 92.2182C164.92 94.4825 145.098 97.0483 122.865 98.9992C97.33 101.24 72.5575 102.318 47.1549 102.305C7.54311 102.281 -32.8821 100.448 -71.9735 98.675C-81.5513 98.2405 -91.4588 97.7915 -101.022 97.3853C-128.447 96.2222 -151.662 95.6347 -171.994 95.5901C-246.857 95.4261 -313.55 98.184 -354.968 103.155L-355.444 102.909C-335.157 100.474 -307.79 98.4974 -276.305 97.1931C-244.762 95.8861 -208.686 95.2376 -171.983 95.3177C-151.593 95.3624 -128.319 95.9507 -100.835 97.1166C-91.2646 97.5228 -81.3571 97.9718 -71.7757 98.4063C-32.7318 100.177 7.64204 102.008 47.1585 102.032C47.3344 102.032 47.5139 102.032 47.6898 102.032C104.215 102.032 147.278 96.4581 181.903 91.9759L182.412 91.9104C191.481 90.7436 198.974 89.7891 205.994 88.9047C240.67 84.5528 269.792 81.0499 302.519 78.8639C343.937 76.0969 388.612 74.2843 431.72 73.6213C470.126 73.0311 506.352 73.481 542.476 74.9984C581.402 76.6333 618.992 79.4505 657.387 83.612C710.819 89.4029 764.329 97.9736 816.431 109.087C819.476 109.739 822.521 110.391 825.562 111.043C849.873 116.25 875.012 121.636 900.542 126.635C971.405 140.514 1033.99 149.767 1097.52 155.756C1121.48 158.02 1146.61 160.03 1172.2 161.732C1203.97 163.823 1235 165.387 1264.43 166.382C1317.15 168.165 1368.75 169.402 1420.53 165.016C1448.62 162.635 1471.9 158.699 1491.67 152.983C1527.39 142.657 1546.91 128.349 1564.13 115.724C1572.19 109.814 1579.8 104.231 1588.39 99.5393C1591.7 97.7341 1595.01 95.8669 1598.22 94.0608C1608.24 88.4138 1618.61 82.5755 1631.32 77.0705C1645.95 70.6866 1662.49 65.2873 1680.46 61.0229C1700.96 56.1628 1722.79 52.9276 1745.37 51.4084C1759.37 50.4666 1773.66 50.0076 1789.01 50.0076C1789.34 50.0076 1789.68 50.0076 1790.01 50.0085C1837.74 50.0704 1886.86 55.4606 1924.32 60.1495C1964.22 65.1453 2003.33 72.1002 2037.41 80.2629C2075.37 89.331 2109.7 100.283 2139.42 112.814C2166.09 124.06 2188.74 136.417 2206.72 149.544L2205.68 149.632C2178.92 130.101 2127.86 102.246 2036.65 80.4606C2002.65 72.3161 1963.63 65.3775 1923.82 60.3936C1886.47 55.7174 1837.51 50.3427 1790.01 50.2817C1774.37 50.259 1759.87 50.7162 1745.66 51.6725C1703.83 54.4878 1663.56 63.5559 1632.27 77.2062C1619.59 82.6984 1609.24 88.5303 1599.22 94.171C1596.02 95.9781 1592.7 97.8461 1589.39 99.6523C1580.83 104.332 1573.22 109.908 1565.17 115.812C1547.92 128.459 1528.37 142.795 1492.51 153.161C1472.6 158.915 1449.17 162.877 1420.88 165.274C1396.91 167.304 1371 168.292 1341.7 168.292Z" fill="#FFE492"/>
<path d="M1371.03 169.574C1365.34 169.574 1359.53 169.529 1353.58 169.438C1327.53 169.04 1302.22 167.846 1276.43 166.552C1246.53 165.053 1216.33 163.047 1184.11 160.421C1158.61 158.324 1133.61 155.936 1109.8 153.321C1049.39 146.697 989.41 136.947 915.32 121.708C896.919 117.923 878.526 113.954 860.737 110.115C851.053 108.025 841.043 105.864 831.124 103.754C778.487 92.5834 723.285 84.4699 667.049 79.6371C592.746 73.2514 516.381 72.082 433.581 76.0622C389.837 78.1653 345.275 81.4633 304.718 85.5993C272.137 88.922 243.756 93.5881 213.707 98.5283L211.63 98.8698C206.936 99.644 202.191 100.429 197.387 101.223C194.621 101.682 191.836 102.142 189.026 102.607C171.505 105.519 152.58 108.556 130.878 110.894C105.681 113.609 80.7579 114.944 54.6774 114.977C11.2588 115.029 -33.0283 112.521 -75.8534 110.093C-81.9649 109.746 -88.289 109.388 -94.4263 109.048C-123.2 107.454 -145.884 106.537 -165.823 106.16C-239.404 104.769 -308.845 105.749 -356.345 108.85L-356.649 108.564C-309.024 105.455 -239.441 104.471 -165.732 105.865C-145.737 106.243 -122.995 107.163 -94.1662 108.759C-88.0253 109.1 -81.7011 109.458 -75.5859 109.805C-33.2847 112.203 10.4417 114.682 53.2851 114.682C53.7468 114.682 54.2085 114.682 54.6738 114.681C110.088 114.611 149.535 108.813 188.37 102.361C191.181 101.896 193.965 101.436 196.732 100.977C201.535 100.182 206.276 99.3981 210.974 98.623L213.051 98.2815C243.151 93.333 271.58 88.6587 304.267 85.3252C344.897 81.181 389.536 77.8775 433.358 75.7708C516.366 71.7805 592.937 72.9536 667.441 79.3566C723.816 84.2021 779.146 92.3339 831.901 103.529C841.819 105.64 851.833 107.8 861.517 109.891C879.299 113.729 897.688 117.697 916.078 121.479C990.08 136.701 1049.98 146.438 1110.28 153.05C1134.06 155.661 1159.02 158.046 1184.48 160.139C1216.65 162.762 1246.81 164.765 1276.67 166.262C1321.99 168.534 1378.4 171.363 1434.57 167.006C1463.45 164.766 1486.88 160.806 1506.19 154.898C1541.57 144.078 1557.97 128.859 1572.45 115.433C1578.74 109.6 1584.68 104.091 1591.61 99.5183C1594.31 97.7368 1597.02 95.8942 1599.63 94.1118C1608.41 88.1341 1617.49 81.9533 1629.15 76.075C1642.3 69.3942 1657.61 63.6479 1674.64 58.9954C1693.94 53.7236 1715.03 50.0012 1737.3 47.9309C1751.6 46.602 1766.25 45.7832 1782.1 45.4271C1803.32 44.9498 1825.91 45.4599 1851.16 46.9827C1872.52 48.2724 1895.42 50.2744 1921.17 53.1043C1962.7 57.6684 2003.11 64.3692 2038.04 72.4818C2077.02 81.507 2111.61 92.567 2140.85 105.353C2167.18 116.867 2188.64 129.507 2204.61 142.924L2203.47 143.008C2169.74 114.682 2110.7 89.7116 2037.23 72.6986C2002.39 64.6078 1962.09 57.9261 1920.68 53.3757C1865.2 47.2787 1821.21 44.846 1782.21 45.7222C1766.46 46.0756 1751.92 46.8889 1737.72 48.2078C1684.72 53.1325 1650 66.1517 1630.22 76.2052C1618.59 82.069 1609.52 88.2425 1600.75 94.2129C1598.13 95.9962 1595.42 97.8397 1592.72 99.6222C1585.81 104.181 1579.88 109.684 1573.6 115.509C1559.1 128.965 1542.66 144.216 1507.11 155.085C1487.65 161.039 1464.03 165.031 1434.92 167.289C1415.19 168.819 1394.15 169.574 1371.03 169.574Z" fill="#FFE492"/>
<path d="M1396.43 171.045C1357.68 171.045 1320.43 168.57 1288.56 166.453C1258.58 164.462 1228.4 161.974 1196.28 158.847C1170.93 156.361 1146.09 153.597 1122.46 150.632C1051.62 141.756 988.461 129.014 930.767 116.567C918.987 114.026 907.086 111.407 895.581 108.874C879.606 105.356 863.085 101.719 846.531 98.2143C793.106 86.9339 736.119 79.2622 677.158 75.4122C600.884 70.4328 521.796 71.3536 435.376 78.2284C390.88 81.7678 346.363 86.5541 306.634 92.07C275.991 96.3235 250.065 101.694 222.618 107.379C220.672 107.781 218.723 108.186 216.762 108.59L215.7 108.811C209.028 110.194 202.128 111.624 195.134 113.06C178.374 116.514 159.919 120.087 138.572 122.817C113.792 125.986 88.8111 127.566 62.192 127.648C15.4683 127.793 -32.153 124.528 -78.2024 121.37C-81.4304 121.149 -84.6437 120.928 -87.8424 120.71C-118.21 118.639 -140.363 117.411 -159.665 116.728C-231.399 114.191 -303.595 113.393 -357.742 114.54L-357.852 114.222C-303.617 113.072 -231.315 113.871 -159.485 116.412C-140.128 117.097 -117.928 118.328 -87.5053 120.403C-84.3066 120.62 -81.0933 120.841 -77.8616 121.063C-31.9001 124.214 15.6296 127.471 62.1737 127.329C119.981 127.151 160.692 119.743 194.313 112.814C201.308 111.378 208.207 109.948 214.879 108.566L215.942 108.345C217.902 107.94 219.851 107.536 221.797 107.134C249.292 101.439 275.262 96.0593 306.007 91.7913C345.809 86.2654 390.411 81.4709 434.984 77.9251C475.955 74.6662 514.439 72.7845 552.629 72.1724C595.23 71.4902 637.235 72.4766 677.48 75.1043C736.629 78.9661 793.784 86.6598 847.359 97.9711C863.924 101.478 880.449 105.116 896.428 108.634C907.933 111.167 919.826 113.786 931.602 116.326C989.237 128.759 1052.32 141.487 1123.03 150.347C1146.63 153.307 1171.43 156.067 1196.75 158.55C1228.81 161.672 1258.95 164.157 1288.89 166.145C1334.86 169.198 1392.07 172.998 1448.6 169C1478.26 166.901 1501.84 162.917 1520.69 156.818C1555.71 145.488 1568.81 129.333 1580.37 115.079C1585.01 109.352 1589.4 103.942 1594.81 99.5004C1596.81 97.8573 1598.82 96.1595 1600.76 94.5173C1608.36 88.0943 1616.22 81.4517 1626.96 75.0824C1638.66 68.0993 1652.73 62.0041 1668.79 56.9682C1686.91 51.2857 1707.24 47.0759 1729.21 44.4555C1743.48 42.7541 1758.18 41.5746 1774.16 40.8487C1795.69 39.8714 1819.58 39.9042 1845.17 40.9461C1867.57 41.8588 1892.07 43.5793 1917.99 46.0613C1961.14 50.1936 2002.86 56.6394 2038.66 64.7019C2078.65 73.6853 2113.51 84.8518 2142.27 97.8928C2168.25 109.674 2188.52 122.599 2202.49 136.306L2201.24 136.385C2171.64 107.339 2113.6 81.9654 2037.8 64.9387C2002.12 56.9026 1960.53 50.4778 1917.53 46.3591C1861.79 41.0208 1814.97 39.3203 1774.39 41.1629C1758.53 41.8834 1743.93 43.0547 1729.77 44.7433C1677.49 50.9778 1645.65 64.7493 1628.15 75.2054C1617.43 81.5583 1609.58 88.1918 1601.99 94.6066C1600.05 96.2488 1598.04 97.9475 1596.04 99.5924C1590.65 104.02 1586.26 109.422 1581.63 115.142C1576.06 121.999 1569.76 129.771 1560.61 137.058C1550.13 145.406 1537.4 151.933 1521.71 157.012C1512.64 159.948 1502.21 162.447 1490.71 164.44C1478.35 166.583 1464.3 168.221 1448.95 169.307C1431.38 170.55 1413.75 171.045 1396.43 171.045Z" fill="#FFE492"/>
<path d="M1419.33 172.657C1406.52 172.657 1393.1 172.348 1378.92 171.729C1351 170.511 1324.28 168.302 1300.7 166.354C1270.98 163.897 1239.94 160.841 1208.46 157.272C1183.27 154.399 1158.6 151.261 1135.12 147.942C1067.75 138.426 1009.71 125.774 946.214 111.425C940.572 110.15 934.841 108.85 929.301 107.591C907.482 102.637 884.923 97.5145 861.938 92.6745C807.626 81.262 748.859 74.0329 687.267 71.1875C609.575 67.598 525.427 70.6948 437.172 80.3931C391.884 85.3697 347.407 91.6434 308.55 98.5373C279.293 103.728 255.209 109.848 229.711 116.327C227.121 116.986 224.519 117.646 221.903 118.309C215.392 119.961 208.379 121.735 201.245 123.51C186.285 127.245 168.053 131.501 146.27 134.738C121.886 138.361 96.8426 140.187 69.7142 140.319C20.052 140.562 -30.5005 136.474 -79.3895 132.522L-81.2509 132.371C-105.188 130.437 -130.51 128.482 -153.498 127.295C-223.569 123.678 -296.596 121.167 -359.123 120.225L-359.039 119.884C-296.446 120.828 -223.353 123.341 -153.22 126.961C-130.166 128.151 -104.8 130.109 -80.8258 132.046L-78.9645 132.196C-30.1817 136.14 20.2682 140.218 69.6886 139.977C126.763 139.698 166.181 131.781 200.274 123.267C207.408 121.493 214.414 119.719 220.925 118.068C223.541 117.406 226.142 116.744 228.733 116.087C254.275 109.596 278.402 103.466 307.755 98.2577C346.685 91.3501 391.247 85.0646 436.618 80.0788C478.026 75.5293 518.773 72.3943 557.722 70.7621C602.225 68.8977 645.896 68.9269 687.523 70.8496C749.35 73.7059 808.334 80.9605 862.829 92.4121C885.831 97.2567 908.402 102.381 930.232 107.338C935.772 108.595 941.503 109.896 947.145 111.171C1010.58 125.506 1068.56 138.145 1135.81 147.644C1159.25 150.957 1183.89 154.091 1209.04 156.96C1240.48 160.524 1271.46 163.576 1301.14 166.028C1347.66 169.874 1405.56 174.658 1462.65 170.992C1493.1 169.037 1516.84 165.028 1535.22 158.737C1569.85 146.882 1579.87 129.015 1587.92 114.658C1591.06 109.065 1594.02 103.784 1598.03 99.4846C1599.3 98.1293 1600.58 96.733 1601.81 95.3823C1608.22 88.3654 1614.86 81.109 1624.81 74.0921C1640.17 63.1724 1669.35 48.5648 1721.14 40.9841C1735.45 38.891 1750.2 37.3499 1766.25 36.2734C1808.24 33.4161 1858.23 34.3406 1914.84 39.0195C1959.61 42.7201 2002.64 48.9109 2039.3 56.9233C2080.3 65.8638 2115.43 77.1378 2143.71 90.4348C2156.69 96.5336 2168.15 103.048 2177.8 109.796C2187.01 116.242 2194.61 122.935 2200.38 129.691L2199.04 129.762C2173.59 99.9946 2116.53 74.2178 2038.39 57.1792C2001.87 49.1969 1959 43.0298 1914.4 39.3428C1858.06 34.6849 1808.33 33.7632 1766.61 36.6022C1750.68 37.6705 1736.03 39.1998 1721.84 41.2774C1670.41 48.8052 1641.39 63.3381 1626.1 74.2041C1616.18 81.2028 1609.56 88.4492 1603.15 95.457C1601.91 96.8077 1600.64 98.2049 1599.37 99.5611C1595.37 103.846 1592.41 109.12 1589.28 114.704C1585.23 121.929 1580.64 130.117 1572.79 137.845C1563.77 146.726 1551.84 153.625 1536.33 158.937C1527.48 161.967 1517.12 164.523 1505.56 166.532C1493.1 168.697 1478.78 170.309 1462.99 171.322C1449.14 172.213 1434.67 172.657 1419.33 172.657Z" fill="#FFE492"/>
<path d="M1440.44 174.361C1425.08 174.361 1408.89 173.866 1391.6 172.874C1363.58 171.268 1336.62 168.603 1312.83 166.252C1282.88 163.292 1251.87 159.74 1220.64 155.695C1195.62 152.439 1171.1 148.925 1147.79 145.25C1083.62 135.145 1028.59 122.12 970.323 108.332C967.44 107.65 964.556 106.967 961.665 106.284C934.57 99.879 906.555 93.2556 877.349 87.1349C822.092 75.5777 761.544 68.7903 697.387 66.9614C616.8 64.6634 529.857 69.9106 438.967 82.5554C393.504 88.8801 347.868 96.8524 310.466 105.003C282.224 111.158 259.573 118.083 235.592 125.415C232.752 126.283 229.905 127.153 227.036 128.026C221.306 129.772 214.487 131.842 207.349 133.96C194.129 137.892 176.117 142.888 153.964 146.647C129.969 150.72 104.87 152.795 77.2325 152.991C54.5155 153.132 29.4463 152.261 0.588436 150.325C-24.1877 148.664 -48.154 146.493 -74.6742 144.033C-98.8824 141.761 -124.432 139.414 -147.354 137.864C-215.252 133.271 -286.971 129.25 -360.516 125.909L-360.252 125.551C-286.664 128.893 -214.904 132.918 -146.969 137.512C-123.985 139.067 -98.3988 141.418 -74.1613 143.692C-29.7093 147.815 25.6137 152.948 77.1922 152.627C136.161 152.208 174.058 143.295 206.224 133.725C213.358 131.609 220.173 129.54 225.9 127.794C228.769 126.922 231.616 126.051 234.452 125.184C258.473 117.84 281.165 110.903 309.499 104.729C346.978 96.5619 392.701 88.574 438.252 82.2375C529.417 69.5545 616.661 64.2936 697.555 66.5998C728.571 67.4842 759.038 69.5381 788.101 72.7041C819.285 76.1005 849.63 80.8631 878.294 86.8572C907.533 92.9842 935.566 99.6113 962.677 106.021C965.567 106.705 968.455 107.387 971.338 108.069C1029.55 121.845 1084.53 134.857 1148.57 144.943C1171.86 148.613 1196.33 152.122 1221.32 155.373C1252.5 159.411 1283.47 162.958 1313.37 165.914C1360.37 170.559 1418.86 176.34 1476.69 172.987C1508.02 171.171 1531.91 167.138 1549.73 160.658C1584.05 148.282 1590.16 129.377 1595.07 114.186C1596.83 108.753 1598.49 103.622 1601.24 99.4719C1601.81 98.6157 1602.38 97.755 1602.95 96.8897C1608.08 89.0741 1613.4 80.9915 1622.63 73.1039C1635.82 61.7588 1662.2 46.3752 1713.06 37.5149C1727.25 35.0429 1742.05 33.1411 1758.32 31.7002C1780.93 29.6791 1806.13 28.7292 1833.21 28.8749C1857.93 29.0079 1884.33 30.0526 1911.67 31.9789C1958.05 35.246 2002.4 41.1818 2039.92 49.1441C2081.93 58.0409 2117.33 69.4242 2145.14 82.9762C2157.9 89.1943 2168.94 95.8423 2177.97 102.735C2186.62 109.337 2193.45 116.181 2198.26 123.076L2196.82 123.138C2175.84 93.0898 2118.3 66.2209 2038.97 49.421C2001.61 41.4933 1957.45 35.5821 1911.27 32.3278C1854.32 28.3147 1801.61 28.2164 1758.81 32.0418C1742.66 33.4718 1727.97 35.359 1713.9 37.8118C1663.39 46.6111 1637.15 61.9155 1624.04 73.2041C1614.83 81.0708 1609.52 89.1415 1604.39 96.9471C1603.82 97.8124 1603.25 98.674 1602.69 99.5302C1599.94 103.664 1598.29 108.789 1596.53 114.214C1591.6 129.449 1585.47 148.409 1550.93 160.864C1542.34 163.987 1532.07 166.601 1520.41 168.632C1507.86 170.816 1493.26 172.401 1477.02 173.342C1465.3 174.02 1453.16 174.361 1440.44 174.361Z" fill="#FFE492"/>
<path d="M1460.27 176.134C1442.77 176.134 1424.24 175.431 1404.27 174.019C1376.01 172.022 1348.88 168.902 1324.95 166.151C1294.71 162.673 1263.71 158.625 1232.81 154.12C1207.97 150.486 1183.62 146.596 1160.44 142.56C1103.36 132.625 1054.59 120.454 1002.94 107.568C994.499 105.461 985.768 103.283 977.106 101.142C946.658 93.6185 920.658 87.4149 892.749 81.5957C836.507 69.8854 774.182 63.5398 707.5 62.7347C623.711 61.7227 533.961 69.1185 440.748 84.7162C394.442 92.4654 348.847 101.965 312.365 111.467C284.881 118.625 263.395 126.417 240.649 134.666C237.831 135.688 235.002 136.713 232.155 137.74C227.084 139.572 220.372 141.985 213.443 144.405C184.285 154.614 146.19 165.124 84.7408 165.661C82.8245 165.676 80.9009 165.684 78.981 165.684C30.9969 165.684 -17.9911 160.963 -68.1076 155.692L-71.2366 155.361C-96.0604 152.726 -119.51 150.239 -141.216 148.428C-223.015 141.605 -302.125 135.845 -361.907 131.589L-361.479 131.217C-301.682 135.474 -222.55 141.235 -140.721 148.061C-118.957 149.877 -95.4815 152.368 -70.6248 155.004L-67.4993 155.336C-15.5472 160.8 35.1886 165.674 84.6858 165.275C145.454 164.743 183.23 154.314 212.172 144.182C219.097 141.764 225.802 139.352 230.873 137.521C233.72 136.494 236.545 135.469 239.363 134.447C262.145 126.185 283.664 118.381 311.236 111.2C347.792 101.678 393.479 92.1593 439.876 84.3947C482.939 77.1883 526.017 71.6551 567.912 67.9472C615.98 63.6928 662.971 61.8093 707.573 62.3476C774.599 63.1564 837.239 69.533 893.746 81.2979C921.695 87.1262 947.721 93.3361 978.198 100.866C986.863 103.007 995.595 105.186 1004.04 107.292C1055.63 120.166 1104.37 132.325 1161.33 142.24C1184.48 146.272 1208.79 150.155 1233.6 153.784C1264.45 158.283 1295.4 162.326 1325.6 165.798C1373.01 171.249 1432.01 178.032 1490.73 174.978C1522.82 173.309 1546.87 169.252 1564.23 162.577C1598.11 149.637 1600.15 129.667 1601.79 113.622C1602.32 108.386 1602.83 103.441 1604.45 99.4558L1604.48 99.3648C1608.11 90.4415 1611.85 81.215 1620.45 72.1115C1627.89 64.171 1638.25 57.0321 1651.25 50.8914C1665.91 43.9683 1683.98 38.2994 1704.96 34.0414C1719 31.1923 1733.86 28.929 1750.37 27.1228C1794.99 22.2145 1849.66 21.4567 1908.49 24.9332C1932.16 26.3323 1955.51 28.4517 1977.9 31.2315C2000.41 34.0277 2021.49 37.4369 2040.54 41.3625C2083.57 50.2165 2119.24 61.7073 2146.56 75.5161C2171.12 87.9277 2188.26 102.086 2196.14 116.46L2194.6 116.512C2177.74 85.7481 2121.23 58.4657 2039.54 41.6603C2001.35 33.7891 1955.9 28.1347 1908.13 25.3121C1849.64 21.8556 1795.31 22.6052 1751.01 27.4799C1734.62 29.2723 1719.89 31.5175 1705.95 34.3438C1666.77 42.2942 1637.73 55.3853 1621.97 72.2016C1613.4 81.2815 1609.66 90.4953 1606.04 99.4058L1606 99.4968C1604.39 103.467 1603.88 108.405 1603.35 113.634C1601.7 129.728 1599.66 149.758 1565.53 162.789C1557.16 166.008 1546.96 168.678 1535.23 170.726C1522.58 172.934 1507.72 174.492 1491.04 175.36C1481.11 175.876 1470.88 176.134 1460.27 176.134Z" fill="#FFE492"/>
<path d="M85.8798 178.364C64.4233 178.364 41.0578 177.325 14.6879 175.203C-11.5136 173.094 -37.4256 170.183 -61.5275 167.353C-65.8913 166.837 -70.2222 166.323 -74.5238 165.812C-95.9363 163.268 -116.162 160.865 -135.064 158.993C-210.437 151.533 -282.281 144.827 -351.762 138.344L-363.274 137.269L-362.696 136.886L-351.183 137.961C-281.699 144.446 -209.843 151.151 -134.456 158.613C-115.502 160.49 -95.2512 162.895 -73.813 165.443C-69.5151 165.954 -65.1842 166.468 -60.824 166.983C-11.3487 172.794 41.2154 178.425 92.1966 177.924C154.866 177.275 192.422 165.139 218.136 154.64C224.724 151.955 231.07 149.279 235.863 147.248C238.508 146.129 241.135 145.01 243.755 143.895C265.483 134.645 286.005 125.909 312.994 117.672C348.62 106.8 394.262 95.7483 441.521 86.5536C485.365 78.023 529.608 71.283 573.026 66.5212C622.828 61.0591 671.471 58.2246 717.605 58.0962C787.024 57.8394 851.499 63.776 909.215 75.7396C941.209 82.3794 969.895 89.562 993.74 95.7127C1006.71 99.06 1019.69 102.491 1032.24 105.809C1076.66 117.556 1122.59 129.702 1174.1 139.539C1197.11 143.935 1221.27 148.194 1245.88 152.197C1276.35 157.14 1307.29 161.677 1337.85 165.683C1385.61 171.944 1445.05 179.736 1504.77 176.971C1537.64 175.449 1561.84 171.368 1578.74 164.496C1612.18 150.97 1609.92 129.906 1608.1 112.982C1607.57 107.977 1607.06 103.249 1607.67 99.4425C1609.04 90.8618 1611.11 80.8893 1618.28 71.1217C1624.33 62.8452 1633.45 55.3574 1645.4 48.867C1658.92 41.5249 1676.25 35.3696 1696.89 30.5715C1710.57 27.3918 1725.9 24.6931 1742.45 22.5491C1766.06 19.4796 1792.57 17.5496 1821.22 16.8137C1848.06 16.1242 1876.35 16.4867 1905.32 17.8903C1929.74 19.0743 1953.82 21.0216 1976.88 23.6794C2000.08 26.3535 2021.71 29.6853 2041.17 33.5817C2063.6 38.0684 2084.22 43.3666 2102.47 49.3297C2119.75 54.9794 2135.07 61.2804 2148 68.0569C2172.19 80.7344 2188.11 95.1854 2194.03 109.845L2192.39 109.886C2179.67 78.4055 2124.18 50.7104 2040.13 33.9014C2001.64 26.1941 1953.66 20.6509 1905 18.2928C1844.84 15.3773 1788.9 16.9749 1743.21 22.9125C1726.79 25.0392 1711.58 27.717 1698.01 30.8711C1659.12 39.9119 1632.83 53.4784 1619.9 71.1955C1612.75 80.9366 1610.68 90.8918 1609.31 99.4589C1608.71 103.252 1609.21 107.972 1609.75 112.971C1610.64 121.32 1611.66 130.784 1608.26 139.934C1604.31 150.55 1595.12 158.654 1580.15 164.71C1572 168.024 1561.88 170.752 1550.07 172.818C1537.32 175.049 1522.18 176.582 1505.08 177.373C1496.45 177.773 1487.83 177.955 1479.26 177.955C1427.93 177.955 1378.2 171.435 1337.08 166.045C1306.48 162.033 1275.49 157.489 1244.99 152.538C1220.33 148.53 1196.14 144.264 1173.1 139.863C1121.48 130.005 1075.5 117.846 1031.04 106.089C1018.49 102.772 1005.52 99.3414 992.557 95.996C968.744 89.8526 940.099 82.6799 908.163 76.0529C850.759 64.1531 786.661 58.2511 717.631 58.5043C609.223 58.8066 508.199 74.0983 442.539 86.8742C395.376 96.0507 349.825 107.079 314.277 117.928C287.368 126.141 266.875 134.864 245.181 144.099C242.561 145.214 239.93 146.333 237.285 147.453C232.488 149.485 226.139 152.163 219.547 154.851C208.753 159.258 191.807 165.674 169.361 170.483C158.46 172.818 146.86 174.654 134.882 175.939C121.527 177.372 107.186 178.177 92.2662 178.331C90.1521 178.353 88.0233 178.364 85.8798 178.364Z" fill="#FFE492"/>
<path d="M92.7689 191.045C71.2867 191.045 47.9689 189.926 21.7381 187.641C-5.4196 185.277 -32.2696 181.953 -54.9499 179.012C-61.9188 178.106 -68.8732 177.188 -75.6003 176.3C-94.4041 173.818 -112.167 171.473 -128.915 169.558C-189.06 162.682 -248.813 155.968 -306.602 149.475C-325.717 147.327 -345.481 145.107 -364.637 142.95L-363.919 142.555C-344.763 144.712 -324.999 146.933 -305.884 149.08C-248.095 155.574 -188.335 162.288 -128.186 169.166C-111.394 171.086 -93.609 173.433 -74.7832 175.918C-68.0597 176.806 -61.1054 177.724 -54.1438 178.629C-7.10506 184.726 47.4559 191.18 99.7012 190.572C163.847 189.809 199.876 176.558 224.102 165.099C230.313 162.163 236.318 159.216 240.854 156.976C243.184 155.827 245.5 154.678 247.812 153.532C268.594 143.227 288.223 133.493 314.757 124.145C349.269 111.988 394.875 99.4048 443.167 88.7146C510.42 73.8912 614.364 55.8097 727.634 53.8487C799.669 52.5681 865.969 58.064 924.685 70.1851C951.066 75.6335 977.154 81.9181 1009.28 90.5645C1025.52 94.9336 1041.63 99.4622 1057.21 103.84C1097.74 115.232 1139.65 127.011 1186.88 136.844C1209.75 141.608 1233.74 146.241 1258.17 150.615C1287.76 155.906 1318.68 160.939 1350.09 165.575C1398.34 172.653 1458.38 181.463 1518.82 178.97C1551.95 177.631 1576.99 173.409 1593.25 166.423C1626.22 152.285 1619.15 129.154 1613.98 112.265C1612.53 107.525 1611.16 103.048 1610.89 99.4367C1610.29 91.4106 1610.34 80.8279 1616.12 70.1395C1626.09 51.6182 1650.55 37.1399 1688.81 27.1091C1702.22 23.5752 1717.61 20.5048 1734.52 17.9828C1758.59 14.3906 1785.74 11.9742 1815.23 10.802C1843.02 9.69806 1872.26 9.71537 1902.14 10.8539C1927.36 11.8357 1952.16 13.6155 1975.85 16.1421C1999.78 18.6941 2021.96 21.9457 2041.8 25.8067C2064.73 30.2678 2085.68 35.5842 2104.06 41.6093C2121.49 47.3191 2136.75 53.7094 2149.44 60.6042C2173.26 73.5487 2187.94 88.2911 2191.92 103.237L2190.18 103.266C2181.62 71.0667 2127.15 42.9582 2040.73 26.1482C2001.55 18.522 1952.23 13.242 1901.88 11.282C1839.81 8.91841 1782.25 11.3639 1735.42 18.3544C1718.64 20.8555 1703.39 23.9013 1690.08 27.407C1652.07 37.3712 1627.77 51.7675 1617.85 70.1978C1612.09 80.857 1612.04 91.4188 1612.63 99.4294C1612.91 103.028 1614.27 107.499 1615.72 112.233C1618.39 120.963 1621.42 130.859 1619.69 140.52C1617.67 151.769 1609.52 160.314 1594.76 166.641C1586.82 170.054 1576.78 172.841 1564.91 174.925C1552.05 177.184 1536.64 178.689 1519.11 179.398C1491.92 180.519 1462.66 179.512 1429.65 176.317C1400.96 173.54 1373.47 169.507 1349.21 165.95C1317.76 161.307 1286.79 156.267 1257.16 150.969C1232.69 146.588 1208.67 141.949 1185.76 137.178C1138.44 127.326 1096.48 115.533 1055.9 104.13C1040.33 99.7527 1024.23 95.2269 1008.01 90.8614C975.934 82.2305 949.894 75.9578 923.575 70.5221C865.207 58.4702 799.328 53.0071 727.751 54.2796C614.969 56.2332 511.369 74.2591 444.317 89.0379C396.121 99.7063 350.61 112.263 316.172 124.395C289.71 133.716 270.111 143.436 249.362 153.727C247.05 154.873 244.734 156.022 242.404 157.171C237.864 159.413 231.855 162.363 225.637 165.301C201.198 176.862 164.807 190.232 99.7782 191.005C97.4662 191.032 95.1248 191.045 92.7689 191.045Z" fill="#FFE492"/>
<path d="M99.7962 203.726C41.0986 203.726 -20.49 194.765 -75.0876 186.82C-91.8651 184.379 -107.712 182.073 -122.771 180.123L-366 148.63L-365.154 148.226L-121.925 179.719C-106.825 181.674 -90.9601 183.983 -74.1606 186.427C-17.4525 194.679 46.8254 204.032 107.205 203.222C172.765 202.343 207.302 187.976 230.067 175.559C237.512 171.497 244.701 167.365 251.655 163.368C270.675 152.439 290.34 141.136 316.512 130.617C337.294 122.265 363.111 113.506 391.17 105.288C421.952 96.2716 454.91 87.9996 489.121 80.7022C526.842 72.657 565.197 66.0017 603.116 60.9221C645.058 55.3042 686.377 51.6364 725.934 50.0197C805.176 46.7818 877.247 51.6956 940.14 64.6264C992.407 75.3712 1036.83 88.6581 1079.79 101.508C1117.19 112.693 1155.85 124.257 1199.64 134.143C1250.21 145.561 1304.95 156.098 1362.33 165.461C1410.68 173.349 1470.85 183.168 1532.86 180.961C1585.24 179.097 1615.52 170.386 1625.43 154.329C1633.87 140.67 1625.84 124.468 1619.4 111.449C1617.2 107.013 1615.13 102.822 1614.11 99.4239C1608.49 80.6904 1612.07 65.2257 1625.06 52.1473C1633.16 43.9874 1645.12 36.7136 1660.6 30.5283C1677.89 23.6189 1700.09 17.8589 1726.59 13.4087C1749.5 9.55871 1775.33 6.76251 1803.36 5.09755C1830.04 3.51274 1858.12 2.98174 1886.84 3.51911C1943.32 4.57566 1998.57 9.72721 2042.41 18.0238C2065.84 22.4585 2087.12 27.7941 2105.65 33.881C2123.21 39.6501 2138.42 46.1305 2150.86 53.1438C2174.3 66.3551 2187.76 81.3899 2189.79 96.6214L2187.96 96.6369C2183.64 64.201 2128.81 34.9485 2041.3 18.3872C1948.36 0.799429 1816.43 -1.13604 1727.6 13.7867C1639.61 28.5692 1603.08 56.5702 1615.93 99.3902C1616.94 102.778 1619.02 106.963 1621.21 111.394C1627.67 124.44 1635.71 140.677 1627.24 154.398C1622.62 161.871 1613.35 167.877 1599.67 172.25C1591.97 174.708 1582.7 176.717 1572.1 178.22C1560.82 179.819 1547.7 180.893 1533.12 181.412C1527.16 181.625 1521.09 181.731 1514.93 181.731C1492.45 181.731 1468.52 180.319 1442.29 177.457C1412.74 174.233 1384.23 169.58 1361.32 165.842C1303.86 156.466 1249.05 145.915 1198.4 134.481C1154.51 124.574 1115.81 112.996 1078.37 101.799C1035.47 88.966 991.099 75.6955 938.964 64.9779C876.492 52.1355 804.915 47.2536 726.22 50.4696C567.032 56.9746 403.053 96.7006 318.058 130.858C291.956 141.348 272.317 152.634 253.322 163.55C246.364 167.548 239.172 171.683 231.719 175.748C216.605 183.992 201.678 189.895 184.743 194.323C174.172 197.087 162.704 199.265 150.657 200.798C137.261 202.502 122.671 203.471 107.289 203.678C104.805 203.71 102.302 203.726 99.7962 203.726Z" fill="#FFE492"/>
</g>
<defs>
<filter id="filter0_d_9_103" x="-370" y="0.55249" width="2659.8" height="234.323" filterUnits="userSpaceOnUse" color-interpolation-filters="sRGB">
<feFlood flood-opacity="0" result="BackgroundImageFix"/>
<feColorMatrix in="SourceAlpha" type="matrix" values="0 0 0 0 0 0 0 0 0 0 0 0 0 0 0 0 0 0 127 0" result="hardAlpha"/>
<feOffset dy="4"/>
<feGaussianBlur stdDeviation="2"/>
<feComposite in2="hardAlpha" operator="out"/>
<feColorMatrix type="matrix" values="0 0 0 0 0 0 0 0 0 0 0 0 0 0 0 0 0 0 0.25 0"/>
<feBlend mode="normal" in2="BackgroundImageFix" result="effect1_dropShadow_9_103"/>
<feBlend mode="normal" in="SourceGraphic" in2="effect1_dropShadow_9_103" result="shape"/>
</filter>
</defs>
</svg>
